<svg xmlns="http://www.w3.org/2000/svg" version="1.1" xmlns:xlink="http://www.w3.org/1999/xlink" xmlns:svgjs="http://svgjs.com/svgjs" width="400" height="560" preserveAspectRatio="none" viewBox="0 0 400 560"><g mask="url(&quot;#SvgjsMask1849&quot;)" fill="none"><g mask="url(&quot;#SvgjsMask1850&quot;)"><path d="M-17.5 297.5L17.5 297.5L52.5 297.5" stroke="rgba(249, 60, 230, 1)" stroke-width="5.83"></path><path d="M43.75 297.5 a8.75 8.75 0 1 0 17.5 0 a8.75 8.75 0 1 0 -17.5 0z" fill="rgba(249, 60, 230, 1)"></path><path d="M122.5 262.5L157.5 297.5L192.5 297.5M87.5 262.5L122.5 297.5L157.5 332.5L192.5 332.5M-17.5 262.5L17.5 262.5L52.5 262.5L87.5 262.5L122.5 262.5L157.5 262.5" stroke="rgba(31, 171, 234, 1)" stroke-width="5.83"></path><path d="M148.75 262.5 a8.75 8.75 0 1 0 17.5 0 a8.75 8.75 0 1 0 -17.5 0zM183.75 297.5 a8.75 8.75 0 1 0 17.5 0 a8.75 8.75 0 1 0 -17.5 0zM183.75 332.5 a8.75 8.75 0 1 0 17.5 0 a8.75 8.75 0 1 0 -17.5 0z" fill="rgba(31, 171, 234, 1)"></path><path d="M-17.5 332.5L17.5 332.5" stroke="rgba(31, 171, 234, 1)" stroke-width="5.83"></path><path d="M8.75 332.5 a8.75 8.75 0 1 0 17.5 0 a8.75 8.75 0 1 0 -17.5 0z" fill="rgba(31, 171, 234, 1)"></path><path d="M-17.5 227.5L17.5 227.5L52.5 227.5L87.5 227.5L122.5 227.5L157.5 227.5" stroke="rgba(31, 171, 234, 1)" stroke-width="5.83"></path><path d="M148.75 227.5 a8.75 8.75 0 1 0 17.5 0 a8.75 8.75 0 1 0 -17.5 0z" fill="rgba(31, 171, 234, 1)"></path><path d="M157.5 367.5L192.5 402.5M87.5 367.5L122.5 332.5M52.5 367.5L87.5 402.5L122.5 402.5M-17.5 367.5L17.5 367.5L52.5 367.5L87.5 367.5L122.5 367.5L157.5 367.5L192.5 367.5" stroke="rgba(249, 60, 230, 1)" stroke-width="5.83"></path><path d="M183.75 367.5 a8.75 8.75 0 1 0 17.5 0 a8.75 8.75 0 1 0 -17.5 0zM183.75 402.5 a8.75 8.75 0 1 0 17.5 0 a8.75 8.75 0 1 0 -17.5 0zM113.75 332.5 a8.75 8.75 0 1 0 17.5 0 a8.75 8.75 0 1 0 -17.5 0zM113.75 402.5 a8.75 8.75 0 1 0 17.5 0 a8.75 8.75 0 1 0 -17.5 0z" fill="rgba(249, 60, 230, 1)"></path><path d="M-17.5 192.5L17.5 192.5L52.5 192.5L87.5 192.5" stroke="rgba(249, 60, 230, 1)" stroke-width="5.83"></path><path d="M78.75 192.5 a8.75 8.75 0 1 0 17.5 0 a8.75 8.75 0 1 0 -17.5 0z" fill="rgba(249, 60, 230, 1)"></path><path d="M17.5 157.5L52.5 122.5L87.5 122.5L122.5 122.5L157.5 122.5M87.5 157.5L122.5 157.5M-17.5 157.5L17.5 157.5L52.5 157.5L87.5 157.5L122.5 192.5" stroke="rgba(31, 171, 234, 1)" stroke-width="5.83"></path><path d="M113.75 192.5 a8.75 8.75 0 1 0 17.5 0 a8.75 8.75 0 1 0 -17.5 0zM148.75 122.5 a8.75 8.75 0 1 0 17.5 0 a8.75 8.75 0 1 0 -17.5 0zM113.75 157.5 a8.75 8.75 0 1 0 17.5 0 a8.75 8.75 0 1 0 -17.5 0z" fill="rgba(31, 171, 234, 1)"></path></g></g><defs><mask id="SvgjsMask1849"><rect width="400" height="560" fill="#ffffff"></rect></mask><mask id="SvgjsMask1850"><rect width="400" height="560" fill="white"></rect><path d="M48.12 297.5 a4.38 4.38 0 1 0 8.76 0 a4.38 4.38 0 1 0 -8.76 0z" fill="black"></path><path d="M153.12 262.5 a4.38 4.38 0 1 0 8.76 0 a4.38 4.38 0 1 0 -8.76 0zM188.12 297.5 a4.38 4.38 0 1 0 8.76 0 a4.38 4.38 0 1 0 -8.76 0zM188.12 332.5 a4.38 4.38 0 1 0 8.76 0 a4.38 4.38 0 1 0 -8.76 0z" fill="black"></path><path d="M13.12 332.5 a4.38 4.38 0 1 0 8.76 0 a4.38 4.38 0 1 0 -8.76 0z" fill="black"></path><path d="M153.12 227.5 a4.38 4.38 0 1 0 8.76 0 a4.38 4.38 0 1 0 -8.76 0z" fill="black"></path><path d="M188.12 367.5 a4.38 4.38 0 1 0 8.76 0 a4.38 4.38 0 1 0 -8.76 0zM188.12 402.5 a4.38 4.38 0 1 0 8.76 0 a4.38 4.38 0 1 0 -8.76 0zM118.12 332.5 a4.38 4.38 0 1 0 8.76 0 a4.38 4.38 0 1 0 -8.76 0zM118.12 402.5 a4.38 4.38 0 1 0 8.76 0 a4.38 4.38 0 1 0 -8.76 0z" fill="black"></path><path d="M83.12 192.5 a4.38 4.38 0 1 0 8.76 0 a4.38 4.38 0 1 0 -8.76 0z" fill="black"></path><path d="M118.12 192.5 a4.38 4.38 0 1 0 8.76 0 a4.38 4.38 0 1 0 -8.76 0zM153.12 122.5 a4.38 4.38 0 1 0 8.76 0 a4.38 4.38 0 1 0 -8.76 0zM118.12 157.5 a4.38 4.38 0 1 0 8.76 0 a4.38 4.38 0 1 0 -8.76 0z" fill="black"></path></mask></defs></svg>