<svg width="864" height="488" viewBox="0 0 864 488" fill="none" xmlns="http://www.w3.org/2000/svg">
<g clip-path="url(#clip0_33_2)">
<path d="M201.459 68.4798C207.589 56.2746 209.101 42.0984 205.693 28.7777C205.354 27.4582 207.328 26.9774 207.666 28.2953C211.187 42.164 209.585 56.9133 203.179 69.5995C202.568 70.8082 200.851 69.6819 201.459 68.4798Z" fill="white"/>
<path d="M262.066 67.5182C273.977 61.638 283.335 51.2723 288.272 38.488C288.76 37.221 290.612 38.0811 290.125 39.3466C284.963 52.6402 275.204 63.4066 262.796 69.4971C261.613 70.0767 260.889 68.0947 262.066 67.5182Z" fill="white"/>
<path d="M613.459 91.5184C619.589 79.3133 621.101 65.137 617.693 51.8164C617.354 50.4969 619.328 50.016 619.666 51.3339C623.187 65.2026 621.585 79.9519 615.179 92.6381C614.568 93.8469 612.851 92.7206 613.459 91.5184Z" fill="white"/>
<path d="M670.918 32.4159C664.836 30.1919 659.707 25.7765 656.447 19.958C653.187 14.1396 652.008 7.29706 653.121 0.65239C653.351 -0.691286 655.355 -0.380833 655.125 0.964623C654.078 7.15013 655.177 13.5239 658.223 18.9355C661.27 24.3471 666.063 28.4401 671.738 30.4758C672.971 30.9197 672.144 32.8572 670.918 32.4159Z" fill="white"/>
<path d="M173.806 362.879C173.806 365.089 175.597 366.879 177.806 366.879H656.987C659.196 366.879 660.986 365.089 660.986 362.879V71.5158C660.984 69.3027 660.143 67.1811 658.649 65.6162C657.155 64.0514 655.129 63.1712 653.015 63.1687H181.777C179.663 63.1712 177.637 64.0514 176.143 65.6162C174.649 67.1811 173.808 69.3027 173.806 71.5158V362.879Z" fill="url(#paint0_linear_33_2)"/>
<path d="M645.934 74.7132H188.858V346.454H645.934V74.7132Z" fill="white"/>
<path d="M173.382 358.887V395.335C173.382 396.846 173.666 398.342 174.218 399.738C174.77 401.134 175.579 402.403 176.6 403.471C177.62 404.54 178.831 405.387 180.164 405.965C181.497 406.544 182.926 406.841 184.369 406.841H364.184V478.773H361.795C361.607 478.773 361.422 478.811 361.249 478.887C361.075 478.962 360.918 479.072 360.786 479.21C360.653 479.349 360.548 479.514 360.476 479.695C360.404 479.877 360.368 480.071 360.368 480.267V485.27C360.368 485.467 360.404 485.661 360.476 485.842C360.548 486.024 360.653 486.189 360.786 486.327C360.918 486.466 361.075 486.576 361.249 486.651C361.422 486.727 361.607 486.765 361.795 486.765H473.421C473.609 486.765 473.794 486.727 473.968 486.651C474.141 486.576 474.298 486.466 474.431 486.327C474.563 486.189 474.668 486.024 474.74 485.842C474.812 485.661 474.849 485.467 474.849 485.27V480.267C474.849 480.071 474.812 479.877 474.74 479.695C474.668 479.514 474.563 479.349 474.431 479.21C474.298 479.072 474.141 478.962 473.968 478.887C473.794 478.811 473.609 478.773 473.421 478.773H471.033V406.841H650.847C652.29 406.841 653.719 406.544 655.052 405.965C656.385 405.387 657.596 404.54 658.617 403.471C659.637 402.403 660.446 401.134 660.998 399.738C661.55 398.342 661.835 396.846 661.835 395.335V358.887L173.382 358.887Z" fill="url(#paint1_linear_33_2)"/>
<path d="M320.38 231.804H230.206C229.274 231.804 228.381 231.416 227.722 230.726C227.063 230.036 226.693 229.1 226.693 228.124C226.693 227.149 227.063 226.213 227.722 225.523C228.381 224.833 229.274 224.445 230.206 224.445H320.38C324.911 224.379 324.957 231.87 320.38 231.804Z" fill="#E4E4E4"/>
<path d="M320.38 248.666H230.206C229.274 248.666 228.381 248.279 227.722 247.589C227.063 246.899 226.693 245.963 226.693 244.987C226.693 244.011 227.063 243.076 227.722 242.386C228.381 241.696 229.274 241.308 230.206 241.308H320.38C324.911 241.242 324.957 248.733 320.38 248.666Z" fill="#E4E4E4"/>
<path d="M320.38 265.529H230.206C229.274 265.529 228.381 265.142 227.722 264.452C227.063 263.762 226.693 262.826 226.693 261.85C226.693 260.874 227.063 259.938 227.722 259.248C228.381 258.558 229.274 258.171 230.206 258.171H320.38C324.911 258.105 324.957 265.596 320.38 265.529Z" fill="#E4E4E4"/>
<path d="M473.089 193.391H361.703C360.927 193.39 360.183 193.067 359.634 192.492C359.085 191.918 358.776 191.138 358.775 190.325V142.996C358.776 142.183 359.085 141.404 359.634 140.829C360.183 140.254 360.927 139.931 361.703 139.93H473.089C473.865 139.931 474.61 140.254 475.159 140.829C475.707 141.404 476.016 142.183 476.017 142.996V190.325C476.016 191.138 475.707 191.918 475.159 192.492C474.61 193.067 473.865 193.39 473.089 193.391Z" fill="url(#paint2_linear_33_2)"/>
<path d="M620.314 193.788H508.928C508.152 193.787 507.407 193.463 506.859 192.889C506.31 192.314 506.001 191.534 506 190.722V143.392C506.001 142.579 506.31 141.8 506.859 141.225C507.407 140.65 508.152 140.327 508.928 140.326H620.314C621.09 140.327 621.835 140.65 622.383 141.225C622.932 141.8 623.241 142.579 623.242 143.392V190.722C623.241 191.534 622.932 192.314 622.383 192.889C621.835 193.463 621.09 193.787 620.314 193.788Z" fill="url(#paint3_linear_33_2)"/>
<path d="M462.483 231.804H372.309C371.377 231.804 370.484 231.416 369.825 230.726C369.166 230.036 368.796 229.1 368.796 228.124C368.796 227.149 369.166 226.213 369.825 225.523C370.484 224.833 371.377 224.445 372.309 224.445H462.483C467.014 224.379 467.059 231.87 462.483 231.804Z" fill="#E4E4E4"/>
<path d="M462.483 248.666H372.309C371.377 248.666 370.484 248.279 369.825 247.589C369.166 246.899 368.796 245.963 368.796 244.987C368.796 244.011 369.166 243.076 369.825 242.386C370.484 241.696 371.377 241.308 372.309 241.308H462.483C467.014 241.242 467.059 248.733 462.483 248.666Z" fill="#E4E4E4"/>
<path d="M462.483 265.529H372.309C371.377 265.529 370.484 265.142 369.825 264.452C369.166 263.762 368.796 262.826 368.796 261.85C368.796 260.874 369.166 259.938 369.825 259.248C370.484 258.558 371.377 258.171 372.309 258.171H462.483C467.014 258.105 467.059 265.596 462.483 265.529Z" fill="#E4E4E4"/>
<path d="M604.586 231.804H514.412C513.48 231.804 512.586 231.416 511.928 230.726C511.269 230.036 510.899 229.1 510.899 228.124C510.899 227.149 511.269 226.213 511.928 225.523C512.586 224.833 513.48 224.445 514.412 224.445H604.586C609.117 224.379 609.162 231.87 604.586 231.804Z" fill="#E4E4E4"/>
<path d="M604.586 248.666H514.412C513.481 248.665 512.589 248.276 511.931 247.587C511.274 246.897 510.905 245.962 510.905 244.987C510.905 244.013 511.274 243.078 511.931 242.388C512.589 241.698 513.481 241.31 514.412 241.308H604.586C609.117 241.242 609.162 248.733 604.586 248.666Z" fill="#E4E4E4"/>
<path d="M604.586 265.529H514.412C513.48 265.529 512.586 265.142 511.928 264.452C511.269 263.762 510.899 262.826 510.899 261.85C510.899 260.874 511.269 259.938 511.928 259.248C512.586 258.558 513.48 258.171 514.412 258.171H604.586C609.117 258.105 609.162 265.596 604.586 265.529Z" fill="#E4E4E4"/>
<path d="M805.527 156.277L805.831 215.601L807.073 215.527L808.252 237.49L805.948 237.622L806.012 250.817L807.857 250.779L808.23 272.761L806.13 272.801L807.13 466.384C807.152 471.453 805.252 476.324 801.848 479.927C798.444 483.531 793.814 485.574 788.974 485.606L584.775 486.765C579.935 486.788 575.283 484.799 571.842 481.234C568.4 477.67 566.45 472.82 566.42 467.751L564.816 157.644C564.794 152.576 566.694 147.705 570.098 144.101C573.502 140.497 578.132 138.455 582.972 138.422L787.171 137.264C792.011 137.243 796.661 139.233 800.102 142.797C803.543 146.361 805.494 151.209 805.527 156.277Z" fill="#3F3D56"/>
<path d="M789.27 473.41L584.352 474.574C582.86 474.581 581.426 473.967 580.366 472.869C579.305 471.77 578.704 470.275 578.694 468.713L577.078 156.544C577.071 154.982 577.657 153.481 578.706 152.37C579.755 151.259 581.183 150.63 582.674 150.619L787.592 149.456C789.084 149.449 790.518 150.062 791.578 151.161C792.639 152.26 793.24 153.754 793.25 155.317L794.867 467.485C794.873 469.048 794.287 470.549 793.238 471.66C792.189 472.771 790.762 473.4 789.27 473.41Z" fill="white"/>
<path d="M684.324 145.326C685.182 145.326 685.877 144.598 685.877 143.7C685.877 142.801 685.182 142.073 684.324 142.073C683.466 142.073 682.771 142.801 682.771 143.7C682.771 144.598 683.466 145.326 684.324 145.326Z" fill="white"/>
<path d="M745.272 237.321H626.672C625.846 237.32 625.053 236.976 624.469 236.364C623.884 235.752 623.556 234.922 623.555 234.056V183.662C623.556 182.796 623.884 181.967 624.469 181.355C625.053 180.743 625.846 180.398 626.672 180.397H745.272C746.099 180.398 746.891 180.743 747.475 181.355C748.06 181.967 748.388 182.796 748.389 183.662V234.056C748.388 234.922 748.06 235.752 747.475 236.364C746.891 236.976 746.099 237.32 745.272 237.321Z" fill="url(#paint4_linear_33_2)"/>
<path d="M733.979 261.496H637.965C636.973 261.496 636.021 261.083 635.32 260.348C634.618 259.613 634.224 258.617 634.224 257.578C634.224 256.539 634.618 255.543 635.32 254.808C636.021 254.073 636.973 253.661 637.965 253.661H733.979C738.803 253.59 738.852 261.567 733.979 261.496Z" fill="#E4E4E4"/>
<path d="M733.979 279.45H637.965C636.974 279.449 636.024 279.035 635.324 278.301C634.624 277.566 634.23 276.571 634.23 275.533C634.23 274.495 634.624 273.5 635.324 272.765C636.024 272.031 636.974 271.617 637.965 271.616H733.979C738.803 271.545 738.852 279.522 733.979 279.45Z" fill="#E4E4E4"/>
<path d="M733.979 297.405H637.965C636.973 297.405 636.021 296.992 635.32 296.258C634.618 295.523 634.224 294.527 634.224 293.488C634.224 292.449 634.618 291.452 635.32 290.718C636.021 289.983 636.973 289.57 637.965 289.57H733.979C738.803 289.5 738.852 297.476 733.979 297.405Z" fill="#E4E4E4"/>
<path d="M745.272 383.548H626.672C625.846 383.547 625.053 383.203 624.469 382.591C623.884 381.979 623.556 381.149 623.555 380.283V329.889C623.556 329.023 623.884 328.194 624.469 327.582C625.053 326.97 625.846 326.625 626.672 326.624H745.272C746.099 326.625 746.891 326.969 747.475 327.581C748.06 328.193 748.388 329.023 748.389 329.889V380.283C748.388 381.149 748.06 381.979 747.475 382.591C746.891 383.203 746.099 383.547 745.272 383.548Z" fill="url(#paint5_linear_33_2)"/>
<path d="M733.979 407.723H637.965C636.973 407.723 636.021 407.31 635.32 406.575C634.618 405.84 634.224 404.844 634.224 403.805C634.224 402.766 634.618 401.77 635.32 401.035C636.021 400.3 636.973 399.888 637.965 399.888H733.979C738.803 399.817 738.852 407.794 733.979 407.723Z" fill="#E4E4E4"/>
<path d="M733.979 425.677H637.965C636.974 425.676 636.024 425.262 635.324 424.528C634.624 423.793 634.23 422.798 634.23 421.76C634.23 420.722 634.624 419.727 635.324 418.992C636.024 418.258 636.974 417.844 637.965 417.843H733.979C738.803 417.772 738.852 425.749 733.979 425.677Z" fill="#E4E4E4"/>
<path d="M733.979 443.632H637.965C636.973 443.632 636.021 443.219 635.32 442.485C634.618 441.75 634.224 440.754 634.224 439.715C634.224 438.676 634.618 437.679 635.32 436.945C636.021 436.21 636.973 435.797 637.965 435.797H733.979C738.803 435.727 738.852 443.703 733.979 443.632Z" fill="#E4E4E4"/>
<path d="M218.318 471.532L217.923 300.571L219.412 300.567L219.34 269.123L217.852 269.127L217.73 216.636C217.725 214.676 217.352 212.735 216.632 210.926C215.911 209.117 214.857 207.474 213.53 206.091C212.203 204.708 210.629 203.612 208.898 202.866C207.167 202.12 205.312 201.739 203.44 201.744L97.3541 202.012C95.482 202.016 93.6291 202.407 91.9012 203.162C90.1734 203.916 88.6043 205.02 87.2837 206.409C85.9631 207.799 84.9168 209.447 84.2045 211.26C83.4922 213.073 83.1279 215.016 83.1324 216.976L83.2168 253.576L80.8464 253.637L81.3699 275.622L83.2675 275.572L83.2788 280.423L81.2594 280.476L81.7829 302.461L83.3295 302.42L83.7205 471.872C83.7215 473.833 84.0923 475.775 84.8117 477.587C85.531 479.398 86.5848 481.042 87.9124 482.426C89.2401 483.81 90.8155 484.905 92.5484 485.65C94.2813 486.394 96.1375 486.773 98.0106 486.765L204.096 486.497C207.876 486.483 211.496 484.899 214.162 482.094C216.828 479.288 218.323 475.49 218.318 471.532Z" fill="#3F3D56"/>
<path d="M94.7666 479.924C93.4436 479.426 92.299 478.513 91.4884 477.311C90.6778 476.108 90.2405 474.673 90.236 473.201L89.6419 215.615C89.6377 213.718 90.3533 211.896 91.6312 210.552C92.9091 209.207 94.6448 208.449 96.4564 208.444L119.028 208.387L118.749 209.109C118.264 210.362 118.081 211.721 118.216 213.066C118.35 214.411 118.799 215.7 119.522 216.821C120.245 217.941 121.219 218.858 122.36 219.491C123.501 220.124 124.774 220.453 126.065 220.45L176.158 220.324C177.405 220.21 178.609 219.79 179.672 219.099C180.736 218.407 181.629 217.463 182.279 216.343C182.92 215.243 183.303 213.999 183.398 212.714C183.492 211.428 183.295 210.138 182.823 208.947L182.54 208.226L205.855 208.167C207.666 208.165 209.404 208.915 210.688 210.253C211.972 211.591 212.696 213.407 212.703 215.304L213.27 461.063C213.276 466.095 211.375 470.924 207.986 474.491C204.596 478.058 199.993 480.071 195.188 480.089L97.0835 480.337C96.2942 480.34 95.5103 480.2 94.7666 479.924Z" fill="white"/>
<path d="M133.413 214.493C134.27 214.493 134.966 213.765 134.966 212.866C134.966 211.968 134.27 211.24 133.413 211.24C132.555 211.24 131.86 211.968 131.86 212.866C131.86 213.765 132.555 214.493 133.413 214.493Z" fill="white"/>
<path d="M193.445 293.657H112.848C112.286 293.656 111.747 293.422 111.35 293.006C110.953 292.59 110.73 292.026 110.729 291.438V257.191C110.73 256.603 110.953 256.039 111.35 255.623C111.747 255.207 112.286 254.973 112.848 254.973H193.445C194.007 254.973 194.545 255.207 194.943 255.623C195.34 256.039 195.563 256.603 195.564 257.191V291.438C195.563 292.026 195.34 292.59 194.943 293.006C194.545 293.422 194.007 293.656 193.445 293.657Z" fill="url(#paint6_linear_33_2)"/>
<path d="M185.771 310.085H120.522C120.188 310.086 119.857 310.017 119.548 309.884C119.239 309.751 118.958 309.554 118.721 309.307C118.485 309.06 118.297 308.766 118.169 308.443C118.041 308.12 117.975 307.773 117.975 307.423C117.975 307.073 118.041 306.726 118.169 306.403C118.297 306.08 118.485 305.786 118.721 305.539C118.958 305.291 119.239 305.095 119.548 304.962C119.857 304.828 120.188 304.76 120.522 304.761H185.771C189.049 304.713 189.082 310.133 185.771 310.085Z" fill="#E4E4E4"/>
<path d="M185.771 322.287H120.522C119.848 322.287 119.201 322.006 118.724 321.507C118.248 321.008 117.98 320.331 117.98 319.625C117.98 318.918 118.248 318.241 118.724 317.742C119.201 317.243 119.848 316.962 120.522 316.962H185.771C189.049 316.914 189.082 322.335 185.771 322.287Z" fill="#E4E4E4"/>
<path d="M185.771 334.488H120.522C120.188 334.489 119.857 334.421 119.548 334.287C119.239 334.154 118.958 333.958 118.721 333.711C118.485 333.463 118.297 333.17 118.169 332.846C118.041 332.523 117.975 332.176 117.975 331.826C117.975 331.476 118.041 331.129 118.169 330.806C118.297 330.483 118.485 330.189 118.721 329.942C118.958 329.695 119.239 329.499 119.548 329.365C119.857 329.232 120.188 329.163 120.522 329.164H185.771C189.049 329.116 189.082 334.537 185.771 334.488Z" fill="#E4E4E4"/>
<path d="M193.445 396.283H112.848C112.286 396.283 111.747 396.049 111.35 395.633C110.953 395.217 110.73 394.653 110.729 394.065V359.818C110.73 359.23 110.953 358.666 111.35 358.25C111.747 357.834 112.286 357.6 112.848 357.599H193.445C194.007 357.6 194.545 357.834 194.943 358.25C195.34 358.666 195.563 359.23 195.564 359.818V394.065C195.563 394.653 195.34 395.217 194.943 395.633C194.545 396.049 194.007 396.283 193.445 396.283Z" fill="url(#paint7_linear_33_2)"/>
<path d="M185.771 412.712H120.522C120.188 412.712 119.857 412.644 119.548 412.511C119.239 412.377 118.958 412.181 118.721 411.934C118.485 411.687 118.297 411.393 118.169 411.07C118.041 410.746 117.975 410.4 117.975 410.05C117.975 409.7 118.041 409.353 118.169 409.03C118.297 408.706 118.485 408.413 118.721 408.165C118.958 407.918 119.239 407.722 119.548 407.588C119.857 407.455 120.188 407.387 120.522 407.387H185.771C189.049 407.339 189.082 412.76 185.771 412.712Z" fill="#E4E4E4"/>
<path d="M185.771 424.913H120.522C119.848 424.913 119.201 424.633 118.724 424.134C118.248 423.634 117.98 422.957 117.98 422.251C117.98 421.545 118.248 420.868 118.724 420.369C119.201 419.869 119.848 419.589 120.522 419.589H185.771C189.049 419.541 189.082 424.962 185.771 424.913Z" fill="#E4E4E4"/>
<path d="M185.771 437.115H120.522C120.188 437.116 119.857 437.047 119.548 436.914C119.239 436.78 118.958 436.584 118.721 436.337C118.485 436.09 118.297 435.796 118.169 435.473C118.041 435.149 117.975 434.803 117.975 434.453C117.975 434.103 118.041 433.756 118.169 433.433C118.297 433.109 118.485 432.816 118.721 432.568C118.958 432.321 119.239 432.125 119.548 431.992C119.857 431.858 120.188 431.79 120.522 431.791H185.771C189.049 431.743 189.082 437.163 185.771 437.115Z" fill="#E4E4E4"/>
<path d="M948.485 487.603H-11.8093C-12.1245 487.602 -12.4265 487.47 -12.649 487.237C-12.8716 487.003 -12.9966 486.686 -12.9966 486.356C-12.9966 486.026 -12.8716 485.71 -12.649 485.476C-12.4265 485.242 -12.1245 485.11 -11.8093 485.109H948.485C948.8 485.109 949.103 485.241 949.327 485.475C949.55 485.708 949.675 486.026 949.675 486.356C949.675 486.687 949.55 487.004 949.327 487.238C949.103 487.472 948.8 487.603 948.485 487.603Z" fill="#CCCCCC"/>
<path d="M323.314 193.788H211.928C211.152 193.787 210.407 193.463 209.859 192.889C209.31 192.314 209.001 191.534 209 190.722V143.392C209.001 142.579 209.31 141.8 209.859 141.225C210.407 140.65 211.152 140.327 211.928 140.326H323.314C324.09 140.327 324.835 140.65 325.383 141.225C325.932 141.8 326.241 142.579 326.242 143.392V190.722C326.241 191.534 325.932 192.314 325.383 192.889C324.835 193.463 324.09 193.787 323.314 193.788Z" fill="url(#paint8_linear_33_2)"/>
</g>
<defs>
<linearGradient id="paint0_linear_33_2" x1="417.396" y1="63.1687" x2="417.396" y2="366.879" gradientUnits="userSpaceOnUse">
<stop stop-color="#3F3D56"/>
<stop offset="1" stop-color="#3F3D56"/>
</linearGradient>
<linearGradient id="paint1_linear_33_2" x1="417.608" y1="358.887" x2="417.608" y2="486.765" gradientUnits="userSpaceOnUse">
<stop stop-color="#3F3D56"/>
<stop offset="1" stop-color="#3F3D56"/>
</linearGradient>
<linearGradient id="paint2_linear_33_2" x1="417.396" y1="139.93" x2="417.396" y2="193.391" gradientUnits="userSpaceOnUse">
<stop stop-color="#8B2CCB"/>
<stop offset="1" stop-color="#639BC4"/>
</linearGradient>
<linearGradient id="paint3_linear_33_2" x1="564.621" y1="140.326" x2="564.621" y2="193.788" gradientUnits="userSpaceOnUse">
<stop stop-color="#8B2CCB"/>
<stop offset="1" stop-color="#639BC4"/>
</linearGradient>
<linearGradient id="paint4_linear_33_2" x1="685.972" y1="180.397" x2="685.972" y2="237.321" gradientUnits="userSpaceOnUse">
<stop offset="0.160702" stop-color="#DB00FF" stop-opacity="0.88"/>
<stop offset="1" stop-color="#AD00FF"/>
</linearGradient>
<linearGradient id="paint5_linear_33_2" x1="685.972" y1="326.624" x2="685.972" y2="383.548" gradientUnits="userSpaceOnUse">
<stop stop-color="#C95CEF"/>
<stop offset="1" stop-color="#4B95AC"/>
</linearGradient>
<linearGradient id="paint6_linear_33_2" x1="153.146" y1="254.973" x2="153.146" y2="293.657" gradientUnits="userSpaceOnUse">
<stop stop-color="#9900FF"/>
<stop offset="1" stop-color="#F975A5"/>
</linearGradient>
<linearGradient id="paint7_linear_33_2" x1="153.146" y1="357.599" x2="153.146" y2="396.283" gradientUnits="userSpaceOnUse">
<stop stop-color="#B45CEF"/>
<stop offset="1" stop-color="#B45CEF" stop-opacity="0.55"/>
</linearGradient>
<linearGradient id="paint8_linear_33_2" x1="267.621" y1="140.326" x2="267.621" y2="193.788" gradientUnits="userSpaceOnUse">
<stop stop-color="#8B2CCB"/>
<stop offset="1" stop-color="#639BC4"/>
</linearGradient>
<clipPath id="clip0_33_2">
<rect width="864" height="488" fill="white"/>
</clipPath>
</defs>
</svg>
