<svg xmlns="http://www.w3.org/2000/svg" version="1.1" xmlns:xlink="http://www.w3.org/1999/xlink" xmlns:svgjs="http://svgjs.com/svgjs" width="1440" height="560" preserveAspectRatio="none" viewBox="0 0 1440 560"><g mask="url(&quot;#SvgjsMask1462&quot;)" fill="none"><g mask="url(&quot;#SvgjsMask1463&quot;)"><path d="M95 285L133 323L171 323L209 323M57 285L95 323M-19 285L19 285L57 285L95 285L133 285L171 285L209 285L247 285L285 285L323 285L361 285L399 285L437 285L475 323" stroke="rgba(31, 171, 234, 1)" stroke-width="6.33"></path><path d="M465.5 323 a9.5 9.5 0 1 0 19 0 a9.5 9.5 0 1 0 -19 0zM199.5 323 a9.5 9.5 0 1 0 19 0 a9.5 9.5 0 1 0 -19 0zM85.5 323 a9.5 9.5 0 1 0 19 0 a9.5 9.5 0 1 0 -19 0z" fill="rgba(31, 171, 234, 1)"></path><path d="M95 247L133 209M399 247L437 247L475 247L513 285L551 285M-19 247L19 247L57 247L95 247L133 247L171 247L209 247L247 247L285 247L323 247L361 247L399 247L437 209L475 209" stroke="rgba(31, 171, 234, 1)" stroke-width="6.33"></path><path d="M465.5 209 a9.5 9.5 0 1 0 19 0 a9.5 9.5 0 1 0 -19 0zM123.5 209 a9.5 9.5 0 1 0 19 0 a9.5 9.5 0 1 0 -19 0zM541.5 285 a9.5 9.5 0 1 0 19 0 a9.5 9.5 0 1 0 -19 0z" fill="rgba(31, 171, 234, 1)"></path><path d="M-19 323L19 323" stroke="rgba(31, 171, 234, 1)" stroke-width="6.33"></path><path d="M9.5 323 a9.5 9.5 0 1 0 19 0 a9.5 9.5 0 1 0 -19 0z" fill="rgba(31, 171, 234, 1)"></path><path d="M57 209L95 209M133 171L171 171L209 171M-19 209L19 209L57 209L95 171L133 171L171 209L209 209L247 209L285 209L323 209L361 209L399 209" stroke="rgba(249, 60, 230, 1)" stroke-width="6.33"></path><path d="M389.5 209 a9.5 9.5 0 1 0 19 0 a9.5 9.5 0 1 0 -19 0zM85.5 209 a9.5 9.5 0 1 0 19 0 a9.5 9.5 0 1 0 -19 0zM199.5 171 a9.5 9.5 0 1 0 19 0 a9.5 9.5 0 1 0 -19 0z" fill="rgba(249, 60, 230, 1)"></path><path d="M57 361L95 399M209 361L247 361L285 361L323 361M19 361L57 399L95 437L133 437L171 437M-19 361L19 361L57 361L95 361L133 361L171 361L209 361L247 323L285 323L323 323L361 323L399 323L437 323L475 361L513 361" stroke="rgba(249, 60, 230, 1)" stroke-width="6.33"></path><path d="M503.5 361 a9.5 9.5 0 1 0 19 0 a9.5 9.5 0 1 0 -19 0zM85.5 399 a9.5 9.5 0 1 0 19 0 a9.5 9.5 0 1 0 -19 0zM313.5 361 a9.5 9.5 0 1 0 19 0 a9.5 9.5 0 1 0 -19 0zM161.5 437 a9.5 9.5 0 1 0 19 0 a9.5 9.5 0 1 0 -19 0z" fill="rgba(249, 60, 230, 1)"></path><path d="M19 171L57 133M247 171L285 133L323 133L361 133M95 133L133 95M-19 171L19 171L57 171L95 133L133 133L171 133L209 133L247 171L285 171L323 171" stroke="rgba(31, 171, 234, 1)" stroke-width="6.33"></path><path d="M313.5 171 a9.5 9.5 0 1 0 19 0 a9.5 9.5 0 1 0 -19 0zM47.5 133 a9.5 9.5 0 1 0 19 0 a9.5 9.5 0 1 0 -19 0zM351.5 133 a9.5 9.5 0 1 0 19 0 a9.5 9.5 0 1 0 -19 0zM123.5 95 a9.5 9.5 0 1 0 19 0 a9.5 9.5 0 1 0 -19 0z" fill="rgba(31, 171, 234, 1)"></path></g></g><defs><mask id="SvgjsMask1462"><rect width="1440" height="560" fill="#ffffff"></rect></mask><mask id="SvgjsMask1463"><rect width="1440" height="560" fill="white"></rect><path d="M470.25 323 a4.75 4.75 0 1 0 9.5 0 a4.75 4.75 0 1 0 -9.5 0zM204.25 323 a4.75 4.75 0 1 0 9.5 0 a4.75 4.75 0 1 0 -9.5 0zM90.25 323 a4.75 4.75 0 1 0 9.5 0 a4.75 4.75 0 1 0 -9.5 0z" fill="black"></path><path d="M470.25 209 a4.75 4.75 0 1 0 9.5 0 a4.75 4.75 0 1 0 -9.5 0zM128.25 209 a4.75 4.75 0 1 0 9.5 0 a4.75 4.75 0 1 0 -9.5 0zM546.25 285 a4.75 4.75 0 1 0 9.5 0 a4.75 4.75 0 1 0 -9.5 0z" fill="black"></path><path d="M14.25 323 a4.75 4.75 0 1 0 9.5 0 a4.75 4.75 0 1 0 -9.5 0z" fill="black"></path><path d="M394.25 209 a4.75 4.75 0 1 0 9.5 0 a4.75 4.75 0 1 0 -9.5 0zM90.25 209 a4.75 4.75 0 1 0 9.5 0 a4.75 4.75 0 1 0 -9.5 0zM204.25 171 a4.75 4.75 0 1 0 9.5 0 a4.75 4.75 0 1 0 -9.5 0z" fill="black"></path><path d="M508.25 361 a4.75 4.75 0 1 0 9.5 0 a4.75 4.75 0 1 0 -9.5 0zM90.25 399 a4.75 4.75 0 1 0 9.5 0 a4.75 4.75 0 1 0 -9.5 0zM318.25 361 a4.75 4.75 0 1 0 9.5 0 a4.75 4.75 0 1 0 -9.5 0zM166.25 437 a4.75 4.75 0 1 0 9.5 0 a4.75 4.75 0 1 0 -9.5 0z" fill="black"></path><path d="M318.25 171 a4.75 4.75 0 1 0 9.5 0 a4.75 4.75 0 1 0 -9.5 0zM52.25 133 a4.75 4.75 0 1 0 9.5 0 a4.75 4.75 0 1 0 -9.5 0zM356.25 133 a4.75 4.75 0 1 0 9.5 0 a4.75 4.75 0 1 0 -9.5 0zM128.25 95 a4.75 4.75 0 1 0 9.5 0 a4.75 4.75 0 1 0 -9.5 0z" fill="black"></path></mask></defs></svg>