<?xml version="1.0" encoding="UTF-8" ?>
<!DOCTYPE svg PUBLIC "-//W3C//DTD SVG 1.1//EN" "http://www.w3.org/Graphics/SVG/1.1/DTD/svg11.dtd">
<svg width="800pt" height="400pt" viewBox="0 0 800 400" version="1.1" xmlns="http://www.w3.org/2000/svg">
<g id="#a1a1a1e7">
<path fill="#a1a1a1" opacity="0.91" d=" M 342.72 25.86 C 353.65 29.75 364.07 34.83 375.30 37.99 C 383.98 42.62 393.61 45.02 402.80 48.48 C 410.65 53.02 419.73 54.68 428.05 58.15 C 437.40 63.56 448.59 64.73 457.92 70.19 C 472.91 74.74 486.84 81.76 501.85 86.24 C 510.53 90.98 520.29 93.19 529.45 96.80 C 533.64 99.47 538.47 100.71 543.12 102.31 C 572.67 79.04 601.37 54.67 631.35 32.00 C 628.52 36.01 625.50 39.90 623.10 44.18 C 622.86 44.27 622.38 44.47 622.14 44.57 C 618.76 45.78 615.59 47.53 612.85 49.85 C 593.25 65.60 573.69 81.40 554.07 97.12 C 550.57 99.77 547.41 103.28 543.03 104.41 C 537.96 105.09 533.48 102.07 528.98 100.26 C 479.03 81.68 429.36 62.45 379.54 43.53 C 369.37 39.80 359.36 34.84 348.60 33.28 C 346.05 31.60 344.84 28.16 342.72 25.86 Z" />
<path fill="#a1a1a1" opacity="0.91" d=" M 607.12 95.80 C 609.04 95.30 610.98 94.87 612.93 94.49 C 612.87 95.25 612.77 96.78 612.72 97.54 C 610.37 98.39 607.45 98.62 606.14 101.07 C 596.90 114.98 586.40 128.04 577.66 142.27 C 577.17 141.40 576.69 140.53 576.21 139.66 C 585.87 124.81 597.06 110.95 606.47 95.96 L 607.12 95.80 Z" />
<path fill="#a1a1a1" opacity="0.91" d=" M 479.10 128.09 C 482.06 128.99 485.06 129.84 487.84 131.23 C 497.11 136.23 507.84 137.68 517.08 142.74 C 523.94 145.58 531.14 147.53 538.05 150.25 C 538.51 150.46 539.42 150.88 539.87 151.09 C 539.18 152.40 538.50 153.71 537.80 155.00 C 532.01 150.20 524.27 149.51 517.63 146.43 C 512.25 143.92 506.68 141.88 501.05 140.04 C 495.58 138.28 490.36 134.86 484.38 135.69 C 482.62 133.16 480.81 130.65 479.10 128.09 Z" />
<path fill="#a1a1a1" opacity="0.91" d=" M 430.26 143.08 C 438.84 144.25 448.37 147.58 452.58 155.78 C 447.54 152.79 441.14 144.62 435.21 149.54 C 433.58 147.36 431.90 145.24 430.26 143.08 Z" />
<path fill="#a1a1a1" opacity="0.91" d=" M 566.42 151.42 C 573.07 162.45 579.27 173.74 585.47 185.03 C 584.76 185.00 583.36 184.96 582.65 184.93 C 579.66 176.91 575.07 169.57 570.75 162.22 C 568.82 158.70 564.98 161.39 562.21 162.03 C 558.02 163.48 552.03 160.58 549.45 165.40 C 545.70 171.69 541.82 178.00 539.35 184.93 C 538.65 184.96 537.26 185.00 536.56 185.03 C 541.17 176.44 545.96 167.95 550.81 159.49 C 554.63 159.61 558.46 159.57 562.28 159.28 C 563.65 156.69 566.22 154.47 566.42 151.42 Z" />
<path fill="#a1a1a1" opacity="0.91" d=" M 609.18 175.56 C 622.84 181.06 637.27 183.66 650.92 189.16 C 650.99 190.48 651.08 191.80 651.18 193.13 C 639.16 184.60 623.13 187.20 610.92 179.09 C 609.84 178.23 609.64 176.76 609.18 175.56 Z" />
<path fill="#a1a1a1" opacity="0.91" d=" M 532.01 198.13 C 552.29 197.86 572.57 198.02 592.86 198.04 C 597.07 205.26 600.78 212.76 604.98 219.98 C 611.13 220.05 617.28 219.90 623.43 220.04 L 624.12 221.30 C 618.86 222.97 613.50 224.30 608.11 225.45 C 603.82 221.80 600.23 217.37 597.92 212.21 C 595.63 207.69 592.99 201.76 587.05 201.67 C 572.38 201.35 557.68 201.74 543.00 201.50 C 539.69 201.61 535.58 201.31 533.35 204.28 C 527.34 212.25 522.61 221.34 514.98 227.98 C 506.68 237.83 497.74 247.44 491.10 258.51 C 489.83 258.28 488.55 258.06 487.29 257.90 C 490.71 251.42 495.99 246.26 500.46 240.54 C 510.28 227.26 523.55 216.52 530.60 201.28 C 531.10 200.24 531.55 199.18 532.01 198.13 Z" />
<path fill="#a1a1a1" opacity="0.91" d=" M 668.62 197.46 C 675.21 197.71 681.49 199.88 687.73 201.84 C 687.62 202.43 687.38 203.63 687.27 204.22 C 685.81 204.56 684.37 204.91 682.94 205.30 C 679.11 201.42 673.65 200.65 668.50 201.64 C 668.49 200.24 668.54 198.85 668.62 197.46 Z" />
<path fill="#a1a1a1" opacity="0.91" d=" M 409.26 274.08 C 429.64 249.62 449.46 224.66 469.32 199.77 L 469.82 201.02 C 470.14 205.26 466.53 208.08 464.18 211.11 C 450.49 225.95 438.47 242.17 425.66 257.74 C 424.38 259.71 423.46 261.87 422.61 264.05 C 416.57 267.42 412.21 273.46 410.40 280.09 C 410.25 279.66 409.94 278.81 409.78 278.38 C 409.60 276.94 409.43 275.51 409.26 274.08 Z" />
<path fill="#a1a1a1" opacity="0.91" d=" M 542.24 264.22 C 547.15 264.11 552.41 263.30 557.14 264.87 C 558.82 268.08 558.18 271.80 557.89 275.24 C 556.65 271.66 554.88 267.18 550.61 266.53 C 544.87 266.04 539.30 267.97 533.71 268.99 C 535.64 266.15 539.19 265.33 542.24 264.22 Z" />
<path fill="#a1a1a1" opacity="0.91" d=" M 605.29 264.11 C 606.12 264.09 607.79 264.05 608.62 264.03 C 608.63 265.58 608.65 267.14 608.68 268.70 C 607.03 267.59 605.99 265.93 605.29 264.11 Z" />
<path fill="#a1a1a1" opacity="0.91" d=" M 504.13 274.26 C 511.40 271.94 518.40 268.73 525.83 266.94 C 525.83 268.50 525.87 270.06 525.91 271.62 C 517.99 271.99 509.63 274.68 503.45 279.67 C 502.63 278.24 501.87 276.77 501.11 275.31 C 502.11 274.96 503.12 274.61 504.13 274.26 Z" />
<path fill="#a1a1a1" opacity="0.91" d=" M 494.27 276.31 C 495.47 278.17 496.60 280.06 497.77 281.94 C 492.62 281.97 487.47 281.81 482.32 281.84 L 482.06 281.48 C 485.69 280.66 489.25 279.48 492.57 277.77 C 493.10 277.89 494.16 278.13 494.69 278.26 C 494.59 277.77 494.38 276.80 494.27 276.31 Z" />
<path fill="#a1a1a1" opacity="0.91" d=" M 565.47 276.94 C 585.44 307.33 605.38 337.75 624.98 368.37 C 622.01 366.12 618.59 364.23 616.24 361.30 C 614.90 357.62 613.38 353.98 611.16 350.73 C 598.04 330.85 585.07 310.85 572.11 290.87 C 569.67 287.07 567.00 283.32 563.19 280.79 C 563.95 279.51 564.74 278.24 565.47 276.94 Z" />
<path fill="#a1a1a1" opacity="0.91" d=" M 403.91 281.22 C 404.96 283.66 406.06 286.08 407.02 288.57 C 405.68 288.32 404.35 288.07 403.03 287.83 C 398.10 291.68 394.80 297.08 390.80 301.81 C 377.49 318.17 364.41 334.72 351.04 351.03 C 348.45 354.45 344.58 357.48 344.27 362.08 L 344.17 362.64 C 341.92 363.14 339.71 363.83 337.54 364.61 C 338.77 360.83 342.19 358.44 344.22 355.12 C 364.21 330.57 383.88 305.75 403.91 281.22 Z" />
<path fill="#a1a1a1" opacity="0.91" d=" M 444.49 294.83 C 452.05 291.39 460.31 289.75 467.85 286.21 C 466.80 288.07 465.73 289.92 464.69 291.78 C 456.16 291.44 448.92 296.59 441.32 299.63 C 438.88 301.01 436.55 299.09 434.40 298.08 C 435.60 297.68 436.83 297.36 438.09 297.13 C 439.72 297.13 441.35 297.20 442.98 297.25 C 443.36 296.65 444.11 295.44 444.49 294.83 Z" />
<path fill="#a1a1a1" opacity="0.91" d=" M 597.62 297.18 C 601.50 296.91 605.40 296.96 609.29 297.17 C 609.42 302.89 609.37 308.61 609.22 314.33 C 608.13 312.92 607.05 311.51 605.96 310.11 L 606.24 309.64 C 611.07 305.67 605.94 296.48 600.33 300.82 L 600.04 300.93 C 599.21 299.68 598.40 298.44 597.62 297.18 Z" />
</g>
<g id="#c9c9c9ea">
<path fill="#c9c9c9" opacity="0.92" d=" M 348.60 33.28 C 359.36 34.84 369.37 39.80 379.54 43.53 C 429.36 62.45 479.03 81.68 528.98 100.26 C 533.48 102.07 537.96 105.09 543.03 104.41 C 547.41 103.28 550.57 99.77 554.07 97.12 C 573.69 81.40 593.25 65.60 612.85 49.85 C 615.59 47.53 618.76 45.78 622.14 44.57 C 620.89 47.49 618.64 49.81 617.01 52.50 L 616.49 52.56 C 613.80 52.67 611.18 53.48 609.12 55.25 C 588.94 71.37 568.75 87.50 548.69 103.79 C 542.51 109.21 534.44 104.82 528.18 101.96 C 472.55 81.09 417.17 59.60 361.57 38.61 C 358.26 37.57 354.66 35.59 351.25 37.44 L 350.86 37.57 C 350.05 36.17 349.29 34.74 348.60 33.28 Z" />
<path fill="#c9c9c9" opacity="0.92" d=" M 433.89 94.66 C 459.57 129.44 485.71 163.91 511.52 198.60 C 511.36 198.76 511.02 199.09 510.85 199.26 C 493.06 220.40 476.19 242.36 458.56 263.66 C 456.64 265.99 454.79 268.41 453.39 271.08 C 454.87 266.68 456.44 262.30 458.17 257.99 C 463.00 256.24 465.47 251.39 468.79 247.81 C 480.89 232.09 494.40 217.37 505.58 201.00 C 501.54 193.76 495.76 187.71 491.22 180.79 C 486.61 174.96 482.79 168.31 476.85 163.69 C 477.31 174.83 477.53 185.97 474.70 196.91 C 474.43 205.81 467.44 211.83 462.23 218.21 C 452.62 229.65 443.62 241.59 434.04 253.06 C 432.58 254.95 430.33 257.35 432.05 259.81 C 435.14 265.49 436.88 271.79 440.15 277.37 C 445.97 273.34 444.38 264.28 450.71 260.80 C 447.34 269.34 445.43 278.61 440.40 286.39 C 436.63 277.06 433.24 267.57 429.69 258.14 C 428.34 258.01 427.00 257.87 425.66 257.74 C 438.47 242.17 450.49 225.95 464.18 211.11 C 466.53 208.08 470.14 205.26 469.82 201.02 C 469.95 199.85 470.24 198.73 470.71 197.65 C 470.55 197.15 470.23 196.15 470.07 195.65 C 478.59 174.76 473.76 146.94 453.41 134.74 C 453.71 132.86 454.32 130.76 452.87 129.17 C 446.38 120.34 439.21 111.95 433.41 102.64 C 431.55 100.14 433.22 97.24 433.89 94.66 Z" />
<path fill="#c9c9c9" opacity="0.92" d=" M 606.14 101.07 C 607.45 98.62 610.37 98.39 612.72 97.54 C 612.13 123.56 609.92 149.54 609.18 175.56 C 609.64 176.76 609.84 178.23 610.92 179.09 C 623.13 187.20 639.16 184.60 651.18 193.13 C 651.46 200.30 651.31 207.48 651.22 214.66 C 650.75 214.57 649.81 214.37 649.33 214.28 C 648.86 207.50 652.56 197.95 645.51 193.60 C 634.39 188.40 621.69 187.23 610.88 181.25 C 607.42 179.55 606.39 175.59 606.48 172.03 C 607.33 148.63 609.79 125.23 609.41 101.80 C 605.34 103.87 603.48 108.25 600.87 111.74 C 593.94 123.03 583.95 132.64 579.35 145.21 C 578.77 144.24 578.21 143.25 577.66 142.27 C 586.40 128.04 596.90 114.98 606.14 101.07 Z" />
<path fill="#c9c9c9" opacity="0.92" d=" M 484.38 135.69 C 490.36 134.86 495.58 138.28 501.05 140.04 C 506.68 141.88 512.25 143.92 517.63 146.43 C 524.27 149.51 532.01 150.20 537.80 155.00 C 537.53 155.48 536.99 156.44 536.71 156.92 C 532.59 152.25 525.97 151.97 520.59 149.57 C 513.49 146.58 506.47 143.37 499.09 141.09 C 495.70 140.07 491.16 137.77 488.59 141.49 C 487.12 139.61 485.72 137.66 484.38 135.69 Z" />
<path fill="#c9c9c9" opacity="0.92" d=" M 435.21 149.54 C 441.14 144.62 447.54 152.79 452.58 155.78 C 456.54 162.48 457.07 170.63 456.46 178.23 L 455.55 176.90 C 454.11 174.69 452.48 172.62 450.90 170.52 C 451.60 170.22 453.00 169.60 453.70 169.29 C 453.96 161.27 447.95 152.26 439.69 151.18 C 439.39 151.90 438.78 153.35 438.48 154.08 C 437.38 152.56 436.31 151.03 435.21 149.54 Z" />
<path fill="#c9c9c9" opacity="0.92" d=" M 575.22 262.07 C 577.47 262.24 579.72 262.31 581.98 262.32 C 582.00 265.83 581.91 269.34 581.83 272.85 C 579.87 269.10 576.82 266.02 575.22 262.07 Z" />
<path fill="#c9c9c9" opacity="0.92" d=" M 410.40 280.09 C 412.21 273.46 416.57 267.42 422.61 264.05 C 419.66 271.92 416.83 279.85 413.51 287.58 C 412.45 285.09 411.42 282.59 410.40 280.09 Z" />
<path fill="#c9c9c9" opacity="0.92" d=" M 589.37 264.14 C 594.67 264.06 599.98 264.12 605.29 264.11 C 605.99 265.93 607.03 267.59 608.68 268.70 L 608.69 269.27 C 609.14 276.49 608.86 283.70 608.90 290.92 C 607.76 290.93 606.63 290.94 605.51 290.96 C 607.15 283.94 598.74 284.45 594.21 285.55 C 594.50 287.41 594.96 289.23 595.62 291.00 C 595.10 291.00 594.07 291.00 593.56 290.99 C 591.72 287.55 588.88 284.32 589.32 280.15 C 595.76 280.10 602.20 280.02 608.63 280.24 C 608.52 278.17 608.42 276.11 608.32 274.05 C 607.57 274.03 606.07 274.00 605.32 273.99 C 604.93 272.51 604.56 271.04 604.19 269.57 C 600.70 268.79 597.11 268.84 593.62 269.53 C 592.93 271.01 592.24 272.48 591.56 273.96 C 591.00 273.96 589.87 273.96 589.31 273.95 C 589.32 270.68 589.35 267.41 589.37 264.14 Z" />
<path fill="#c9c9c9" opacity="0.92" d=" M 533.71 268.99 C 539.30 267.97 544.87 266.04 550.61 266.53 C 554.88 267.18 556.65 271.66 557.89 275.24 C 556.80 275.53 555.72 275.82 554.64 276.10 C 555.41 272.64 553.46 269.32 549.64 269.45 C 544.68 269.27 535.53 268.66 536.40 275.97 C 535.63 275.99 534.09 276.03 533.32 276.05 C 533.44 273.69 533.53 271.34 533.71 268.99 Z" />
<path fill="#c9c9c9" opacity="0.92" d=" M 415.65 296.90 C 419.34 287.19 423.25 277.56 427.07 267.90 C 430.13 275.87 433.21 283.83 436.07 291.87 C 434.79 293.29 433.52 294.71 432.24 296.13 C 432.53 290.63 431.19 285.18 428.51 280.38 C 427.52 280.39 426.53 280.41 425.54 280.43 C 422.17 286.11 420.96 292.81 417.41 298.37 C 415.19 301.84 409.25 301.06 407.80 297.25 C 406.40 294.85 404.80 289.32 401.13 292.05 C 384.30 312.27 368.03 332.99 351.40 353.39 C 349.61 355.37 348.38 357.83 348.67 360.58 L 348.65 361.16 C 347.20 361.54 345.74 361.83 344.27 362.08 C 344.58 357.48 348.45 354.45 351.04 351.03 C 364.41 334.72 377.49 318.17 390.80 301.81 C 394.80 297.08 398.10 291.68 403.03 287.83 C 404.35 288.07 405.68 288.32 407.02 288.57 C 408.09 291.40 409.14 294.25 410.20 297.09 C 412.01 297.03 413.83 296.97 415.65 296.90 Z" />
<path fill="#c9c9c9" opacity="0.92" d=" M 503.45 279.67 C 509.63 274.68 517.99 271.99 525.91 271.62 C 526.09 280.09 525.94 288.55 526.02 297.01 C 528.43 297.07 530.84 297.14 533.26 297.21 C 533.31 292.19 533.34 287.18 533.37 282.16 C 536.60 282.13 539.83 281.94 543.07 282.16 C 551.60 285.90 555.68 299.37 566.71 297.08 C 565.33 298.78 563.93 301.54 561.27 300.85 C 552.48 298.80 548.98 288.03 539.97 286.51 C 534.67 286.69 532.13 295.02 538.09 296.66 C 533.10 297.21 528.80 300.27 523.83 301.02 C 523.26 292.38 524.69 283.58 522.95 275.06 C 517.25 275.23 511.91 277.38 506.83 279.81 C 506.53 281.15 506.23 282.48 505.94 283.83 C 505.10 282.45 504.25 281.06 503.45 279.67 Z" />
<path fill="#c9c9c9" opacity="0.92" d=" M 552.04 282.16 C 555.80 282.30 559.63 282.16 563.19 280.79 C 567.00 283.32 569.67 287.07 572.11 290.87 C 585.07 310.85 598.04 330.85 611.16 350.73 C 613.38 353.98 614.90 357.62 616.24 361.30 C 614.07 359.34 611.11 357.94 609.59 355.42 C 609.02 349.99 605.59 345.60 602.78 341.13 C 591.10 323.72 579.86 306.03 568.38 288.50 C 566.42 284.65 560.99 284.13 558.44 287.65 C 556.32 285.80 554.19 283.96 552.04 282.16 Z" />
<path fill="#c9c9c9" opacity="0.92" d=" M 473.86 288.61 C 482.81 287.66 491.89 288.25 500.89 288.17 C 502.57 291.14 504.29 294.08 505.98 297.05 C 508.61 297.03 511.24 297.01 513.87 297.06 C 512.96 299.16 511.82 302.00 509.03 301.78 C 503.79 301.65 501.83 295.65 497.54 293.68 C 491.43 292.82 485.19 293.23 479.04 293.40 C 473.27 293.40 471.96 301.76 466.01 301.38 C 463.00 300.75 461.61 297.46 459.71 295.33 C 450.13 296.63 439.30 308.23 430.50 299.51 C 431.80 299.05 433.09 298.54 434.40 298.08 C 436.55 299.09 438.88 301.01 441.32 299.63 C 448.92 296.59 456.16 291.44 464.69 291.78 C 463.73 293.50 462.81 295.24 461.90 296.98 C 464.22 297.00 466.55 297.02 468.89 297.03 C 470.51 294.21 471.92 291.23 473.86 288.61 Z" />
<path fill="#c9c9c9" opacity="0.92" d=" M 600.33 300.82 C 605.94 296.48 611.07 305.67 606.24 309.64 C 603.69 307.13 602.17 303.84 600.33 300.82 Z" />
</g>
<g id="#e5e5e5eb">
<path fill="#e5e5e5" opacity="0.92" d=" M 351.25 37.44 C 354.66 35.59 358.26 37.57 361.57 38.61 C 417.17 59.60 472.55 81.09 528.18 101.96 C 534.44 104.82 542.51 109.21 548.69 103.79 C 568.75 87.50 588.94 71.37 609.12 55.25 C 611.18 53.48 613.80 52.67 616.49 52.56 C 600.16 77.03 582.51 100.61 565.95 124.93 C 565.05 125.96 564.34 127.41 562.95 127.82 C 561.60 127.89 560.26 127.94 558.92 127.98 C 565.63 122.16 569.96 114.27 575.11 107.15 C 585.14 91.88 597.09 77.81 605.99 61.84 C 604.14 62.63 602.27 63.43 600.69 64.68 C 585.34 77.01 569.99 89.35 554.62 101.67 C 550.85 104.60 547.15 108.68 542.02 108.73 C 536.48 108.54 531.56 105.67 526.55 103.61 C 477.35 85.29 428.48 66.10 379.31 47.74 C 372.36 44.69 365.26 41.84 357.82 40.23 C 359.20 43.90 361.44 47.12 363.92 50.11 C 377.00 67.68 390.07 85.25 403.37 102.65 C 409.65 111.40 415.85 120.26 423.22 128.15 C 421.87 128.06 420.52 127.98 419.18 127.90 C 396.19 98.01 373.87 67.61 351.25 37.44 Z" />
<path fill="#e5e5e5" opacity="0.92" d=" M 488.59 141.49 C 491.16 137.77 495.70 140.07 499.09 141.09 C 506.47 143.37 513.49 146.58 520.59 149.57 C 525.97 151.97 532.59 152.25 536.71 156.92 C 531.28 166.11 526.11 175.45 520.59 184.59 C 510.38 169.93 499.37 155.77 488.59 141.49 M 493.10 142.87 C 500.36 153.52 508.56 163.51 516.06 174.00 C 517.49 175.65 518.96 178.51 521.59 177.59 C 524.60 175.53 525.95 171.93 527.79 168.93 C 529.88 164.88 533.42 161.14 532.82 156.24 C 525.29 152.98 517.36 150.72 509.92 147.21 C 504.44 145.59 498.96 141.85 493.10 142.87 Z" />
<path fill="#e5e5e5" opacity="0.92" d=" M 439.69 151.18 C 447.95 152.26 453.96 161.27 453.70 169.29 C 453.00 169.60 451.60 170.22 450.90 170.52 C 446.80 165.01 442.60 159.57 438.48 154.08 C 438.78 153.35 439.39 151.90 439.69 151.18 Z" />
<path fill="#e5e5e5" opacity="0.92" d=" M 562.21 162.03 C 564.98 161.39 568.82 158.70 570.75 162.22 C 575.07 169.57 579.66 176.91 582.65 184.93 C 568.22 185.02 553.78 185.02 539.35 184.93 C 541.82 178.00 545.70 171.69 549.45 165.40 C 552.03 160.58 558.02 163.48 562.21 162.03 M 552.11 170.05 C 549.92 174.20 546.80 178.02 545.94 182.75 C 555.97 183.08 566.02 183.09 576.05 182.74 C 574.55 176.78 570.82 171.58 567.49 166.51 C 562.43 166.79 554.70 163.99 552.11 170.05 Z" />
<path fill="#e5e5e5" opacity="0.92" d=" M 668.50 201.64 C 673.65 200.65 679.11 201.42 682.94 205.30 C 678.19 206.67 673.38 207.82 668.59 209.05 C 668.57 206.58 668.51 204.11 668.50 201.64 Z" />
<path fill="#e5e5e5" opacity="0.92" d=" M 536.40 275.97 C 535.53 268.66 544.68 269.27 549.64 269.45 C 553.46 269.32 555.41 272.64 554.64 276.10 C 548.56 275.88 542.48 276.05 536.40 275.97 Z" />
<path fill="#e5e5e5" opacity="0.92" d=" M 593.62 269.53 C 597.11 268.84 600.70 268.79 604.19 269.57 C 604.56 271.04 604.93 272.51 605.32 273.99 C 600.73 273.94 596.15 274.00 591.56 273.96 C 592.24 272.48 592.93 271.01 593.62 269.53 Z" />
<path fill="#e5e5e5" opacity="0.92" d=" M 558.44 287.65 C 560.99 284.13 566.42 284.65 568.38 288.50 C 579.86 306.03 591.10 323.72 602.78 341.13 C 605.59 345.60 609.02 349.99 609.59 355.42 C 586.35 335.83 563.08 316.12 540.42 295.87 C 547.47 297.89 552.07 304.01 557.67 308.35 C 567.13 317.28 577.57 325.07 587.26 333.74 C 591.64 337.44 595.57 341.90 601.00 344.13 C 597.22 334.54 590.08 326.80 585.09 317.85 C 580.24 311.47 577.11 303.82 571.38 298.13 C 568.79 300.63 566.13 304.35 561.99 303.38 C 553.65 302.49 550.09 293.64 543.18 290.05 C 541.70 291.75 540.32 293.52 539.03 295.37 C 538.80 295.69 538.32 296.34 538.09 296.66 C 532.13 295.02 534.67 286.69 539.97 286.51 C 548.98 288.03 552.48 298.80 561.27 300.85 C 563.93 301.54 565.33 298.78 566.71 297.08 C 567.30 297.06 568.50 297.01 569.09 296.99 C 565.62 293.78 561.97 290.79 558.44 287.65 Z" />
<path fill="#e5e5e5" opacity="0.92" d=" M 594.21 285.55 C 598.74 284.45 607.15 283.94 605.51 290.96 C 602.21 290.98 598.91 290.99 595.62 291.00 C 594.96 289.23 594.50 287.41 594.21 285.55 Z" />
</g>
<g id="#ebebebeb">
<path fill="#ebebeb" opacity="0.92" d=" M 357.82 40.23 C 365.26 41.84 372.36 44.69 379.31 47.74 C 428.48 66.10 477.35 85.29 526.55 103.61 C 531.56 105.67 536.48 108.54 542.02 108.73 C 547.15 108.68 550.85 104.60 554.62 101.67 C 569.99 89.35 585.34 77.01 600.69 64.68 C 602.27 63.43 604.14 62.63 605.99 61.84 C 597.09 77.81 585.14 91.88 575.11 107.15 C 569.96 114.27 565.63 122.16 558.92 127.98 C 557.04 128.01 555.17 128.03 553.31 128.07 C 551.44 131.46 549.54 134.86 547.17 137.94 C 538.16 132.71 527.90 130.52 518.32 126.65 C 510.38 122.23 501.33 120.49 493.00 116.98 C 485.93 113.03 477.93 111.28 470.41 108.43 C 458.37 102.59 445.29 99.34 433.17 93.69 C 433.35 93.93 433.71 94.42 433.89 94.66 C 433.22 97.24 431.55 100.14 433.41 102.64 C 439.21 111.95 446.38 120.34 452.87 129.17 C 454.32 130.76 453.71 132.86 453.41 134.74 C 444.24 129.63 433.52 128.63 423.22 128.15 C 415.85 120.26 409.65 111.40 403.37 102.65 C 390.07 85.25 377.00 67.68 363.92 50.11 C 361.44 47.12 359.20 43.90 357.82 40.23 Z" />
<path fill="#ebebeb" opacity="0.92" d=" M 600.87 111.74 C 603.48 108.25 605.34 103.87 609.41 101.80 C 609.79 125.23 607.33 148.63 606.48 172.03 C 606.39 175.59 607.42 179.55 610.88 181.25 C 621.69 187.23 634.39 188.40 645.51 193.60 C 652.56 197.95 648.86 207.50 649.33 214.28 C 641.06 217.07 632.43 218.61 624.12 221.30 L 623.43 220.04 C 609.00 194.95 594.04 170.16 579.35 145.21 C 583.95 132.64 593.94 123.03 600.87 111.74 Z" />
<path fill="#ebebeb" opacity="0.92" d=" M 493.10 142.87 C 498.96 141.85 504.44 145.59 509.92 147.21 C 517.36 150.72 525.29 152.98 532.82 156.24 C 533.42 161.14 529.88 164.88 527.79 168.93 C 525.95 171.93 524.60 175.53 521.59 177.59 C 518.96 178.51 517.49 175.65 516.06 174.00 C 508.56 163.51 500.36 153.52 493.10 142.87 Z" />
<path fill="#ebebeb" opacity="0.92" d=" M 476.85 163.69 C 482.79 168.31 486.61 174.96 491.22 180.79 C 495.76 187.71 501.54 193.76 505.58 201.00 C 494.40 217.37 480.89 232.09 468.79 247.81 C 465.47 251.39 463.00 256.24 458.17 257.99 C 456.06 258.04 453.97 258.00 451.87 257.97 C 451.47 258.91 451.08 259.85 450.71 260.80 C 444.38 264.28 445.97 273.34 440.15 277.37 C 436.88 271.79 435.14 265.49 432.05 259.81 C 430.33 257.35 432.58 254.95 434.04 253.06 C 443.62 241.59 452.62 229.65 462.23 218.21 C 467.44 211.83 474.43 205.81 474.70 196.91 C 477.53 185.97 477.31 174.83 476.85 163.69 Z" />
<path fill="#ebebeb" opacity="0.92" d=" M 552.11 170.05 C 554.70 163.99 562.43 166.79 567.49 166.51 C 570.82 171.58 574.55 176.78 576.05 182.74 C 566.02 183.09 555.97 183.08 545.94 182.75 C 546.80 178.02 549.92 174.20 552.11 170.05 Z" />
<path fill="#ebebeb" opacity="0.92" d=" M 533.35 204.28 C 535.58 201.31 539.69 201.61 543.00 201.50 C 557.68 201.74 572.38 201.35 587.05 201.67 C 592.99 201.76 595.63 207.69 597.92 212.21 C 600.23 217.37 603.82 221.80 608.11 225.45 C 608.12 226.91 608.13 228.37 608.16 229.84 C 608.28 238.53 608.45 247.21 608.39 255.89 C 608.39 256.36 608.38 257.29 608.38 257.76 C 599.58 258.16 590.77 257.86 581.97 258.00 C 581.97 259.43 581.97 260.87 581.98 262.32 C 579.72 262.31 577.47 262.24 575.22 262.07 L 574.59 262.02 C 570.08 254.48 565.48 246.91 560.05 239.99 C 538.12 248.02 515.88 255.34 493.74 262.77 C 492.83 261.36 491.95 259.93 491.10 258.51 C 497.74 247.44 506.68 237.83 514.98 227.98 C 522.61 221.34 527.34 212.25 533.35 204.28 Z" />
<path fill="#ebebeb" opacity="0.92" d=" M 506.83 279.81 C 511.91 277.38 517.25 275.23 522.95 275.06 C 524.69 283.58 523.26 292.38 523.83 301.02 C 465.49 321.02 407.16 341.01 348.67 360.58 C 348.38 357.83 349.61 355.37 351.40 353.39 C 368.03 332.99 384.30 312.27 401.13 292.05 C 404.80 289.32 406.40 294.85 407.80 297.25 C 409.25 301.06 415.19 301.84 417.41 298.37 C 420.96 292.81 422.17 286.11 425.54 280.43 C 426.53 280.41 427.52 280.39 428.51 280.38 C 431.19 285.18 432.53 290.63 432.24 296.13 C 431.43 297.02 430.63 297.93 429.86 298.86 C 430.02 299.02 430.34 299.35 430.50 299.51 C 439.30 308.23 450.13 296.63 459.71 295.33 C 461.61 297.46 463.00 300.75 466.01 301.38 C 471.96 301.76 473.27 293.40 479.04 293.40 C 485.19 293.23 491.43 292.82 497.54 293.68 C 501.83 295.65 503.79 301.65 509.03 301.78 C 511.82 302.00 512.96 299.16 513.87 297.06 C 511.13 292.71 508.65 288.20 505.94 283.83 C 506.23 282.48 506.53 281.15 506.83 279.81 Z" />
<path fill="#ebebeb" opacity="0.92" d=" M 543.18 290.05 C 550.09 293.64 553.65 302.49 561.99 303.38 C 566.13 304.35 568.79 300.63 571.38 298.13 C 577.11 303.82 580.24 311.47 585.09 317.85 C 590.08 326.80 597.22 334.54 601.00 344.13 C 595.57 341.90 591.64 337.44 587.26 333.74 C 577.57 325.07 567.13 317.28 557.67 308.35 C 552.07 304.01 547.47 297.89 540.42 295.87 L 539.03 295.37 C 540.32 293.52 541.70 291.75 543.18 290.05 Z" />
</g>
<g id="#7e7e7eb3">
<path fill="#7e7e7e" opacity="0.70" d=" M 607.12 95.80 C 608.98 92.91 610.50 89.57 613.49 87.67 C 613.54 89.92 613.41 92.17 613.29 94.41 L 612.93 94.49 C 610.98 94.87 609.04 95.30 607.12 95.80 Z" />
<path fill="#7e7e7e" opacity="0.70" d=" M 550.81 159.49 C 551.54 158.36 552.29 157.22 553.04 156.09 C 556.11 157.16 559.20 158.20 562.28 159.28 C 558.46 159.57 554.63 159.61 550.81 159.49 Z" />
<path fill="#7e7e7e" opacity="0.70" d=" M 668.62 197.46 C 668.68 196.42 668.75 195.39 668.83 194.35 C 677.07 197.84 686.12 198.49 694.20 202.36 C 692.21 202.93 690.24 203.50 688.24 203.99 L 687.27 204.22 C 687.38 203.63 687.62 202.43 687.73 201.84 C 681.49 199.88 675.21 197.71 668.62 197.46 Z" />
<path fill="#7e7e7e" opacity="0.70" d=" M 517.66 219.79 C 521.12 213.06 525.20 206.63 530.60 201.28 C 523.55 216.52 510.28 227.26 500.46 240.54 C 495.99 246.26 490.71 251.42 487.29 257.90 C 486.29 257.91 485.29 257.94 484.31 257.99 C 494.56 245.54 504.83 233.09 514.66 220.31 C 515.65 220.15 516.66 219.97 517.66 219.79 Z" />
<path fill="#7e7e7e" opacity="0.70" d=" M 476.71 270.21 C 476.69 265.82 480.69 263.15 482.94 259.83 C 481.07 263.41 479.05 266.91 476.71 270.21 Z" />
<path fill="#7e7e7e" opacity="0.70" d=" M 486.61 265.86 C 484.60 264.14 489.34 262.99 488.09 265.35 C 487.72 265.48 486.98 265.73 486.61 265.86 Z" />
<path fill="#7e7e7e" opacity="0.70" d=" M 533.45 264.32 C 536.38 264.17 539.30 264.10 542.24 264.22 C 539.19 265.33 535.64 266.15 533.71 268.99 C 533.53 271.34 533.44 273.69 533.32 276.05 C 533.19 272.14 533.23 268.22 533.45 264.32 Z" />
</g>
<g id="#000000ff">
<path fill="#000000" opacity="1.00" d=" M 45.99 108.02 C 52.25 107.94 58.51 107.91 64.77 108.05 C 64.85 123.31 64.74 138.57 64.83 153.84 C 94.12 154.06 123.42 154.04 152.71 153.85 C 152.73 138.57 152.55 123.29 152.82 108.02 C 159.06 107.96 165.31 107.86 171.56 108.10 C 171.64 145.39 171.54 182.69 171.61 219.99 C 165.32 220.49 159.01 220.21 152.72 220.17 C 153.19 203.14 152.85 186.08 152.94 169.04 C 123.55 168.94 94.17 169.00 64.79 169.01 C 64.77 170.61 64.76 172.22 64.76 173.82 C 64.84 189.24 64.80 204.66 64.78 220.09 C 58.49 220.36 52.18 220.31 45.88 220.12 C 45.88 182.75 45.67 145.38 45.99 108.02 Z" />
<path fill="#000000" opacity="1.00" d=" M 260.24 128.04 C 265.61 128.26 271.37 127.24 276.50 128.51 C 294.71 158.90 312.70 189.46 330.62 220.03 C 324.37 220.36 318.11 220.26 311.86 220.23 C 307.51 213.10 303.87 205.56 299.70 198.31 C 278.58 198.28 257.47 198.24 236.35 198.33 C 232.58 205.60 228.55 212.73 224.85 220.04 C 218.99 220.47 213.10 220.26 207.24 220.03 C 224.70 189.26 242.56 158.70 260.24 128.04 M 243.94 184.79 C 259.98 185.07 276.03 185.07 292.07 184.79 C 284.01 170.61 276.28 156.25 267.99 142.21 C 259.60 156.19 252.03 170.64 243.94 184.79 Z" />
<path fill="#000000" opacity="1.00" d=" M 364.28 128.06 C 382.58 127.86 400.89 128.04 419.18 127.90 C 420.52 127.98 421.87 128.06 423.22 128.15 C 433.52 128.63 444.24 129.63 453.41 134.74 C 473.76 146.94 478.59 174.76 470.07 195.65 C 462.73 213.15 442.27 219.27 424.84 220.06 C 404.66 220.40 384.45 220.38 364.26 220.06 C 364.25 189.40 364.22 158.73 364.28 128.06 M 381.75 142.00 C 381.71 144.29 381.71 146.58 381.74 148.87 C 381.90 167.86 381.71 186.85 381.83 205.84 C 399.77 205.49 418.04 207.59 435.70 203.72 C 445.70 201.80 454.34 193.70 455.54 183.39 C 456.06 181.28 456.95 178.86 455.55 176.90 L 456.46 178.23 C 457.07 170.63 456.54 162.48 452.58 155.78 C 448.37 147.58 438.84 144.25 430.26 143.08 C 414.20 140.88 397.90 142.47 381.75 142.00 Z" />
<path fill="#000000" opacity="1.00" d=" M 553.31 128.07 C 555.17 128.03 557.04 128.01 558.92 127.98 C 560.26 127.94 561.60 127.89 562.95 127.82 C 570.99 125.38 572.59 134.74 576.21 139.66 C 576.69 140.53 577.17 141.40 577.66 142.27 C 578.21 143.25 578.77 144.24 579.35 145.21 C 594.04 170.16 609.00 194.95 623.43 220.04 C 617.28 219.90 611.13 220.05 604.98 219.98 C 600.78 212.76 597.07 205.26 592.86 198.04 C 572.57 198.02 552.29 197.86 532.01 198.13 C 531.55 199.18 531.10 200.24 530.60 201.28 C 525.20 206.63 521.12 213.06 517.66 219.79 C 516.66 219.97 515.65 220.15 514.66 220.31 C 509.83 220.40 505.00 220.17 500.18 220.05 C 503.37 212.94 508.95 206.88 510.85 199.26 C 511.02 199.09 511.36 198.76 511.52 198.60 C 515.67 194.74 517.45 189.18 520.59 184.59 C 526.11 175.45 531.28 166.11 536.71 156.92 C 536.99 156.44 537.53 155.48 537.80 155.00 C 538.50 153.71 539.18 152.40 539.87 151.09 C 539.42 150.88 538.51 150.46 538.05 150.25 C 538.55 150.32 539.53 150.45 540.03 150.51 C 542.91 146.61 544.84 142.16 547.17 137.94 C 549.54 134.86 551.44 131.46 553.31 128.07 M 553.04 156.09 C 552.29 157.22 551.54 158.36 550.81 159.49 C 545.96 167.95 541.17 176.44 536.56 185.03 C 537.26 185.00 538.65 184.96 539.35 184.93 C 553.78 185.02 568.22 185.02 582.65 184.93 C 583.36 184.96 584.76 185.00 585.47 185.03 C 579.27 173.74 573.07 162.45 566.42 151.42 C 564.69 148.40 562.99 145.37 561.17 142.41 C 557.74 146.35 555.78 151.59 553.04 156.09 Z" />
<path fill="#000000" opacity="1.00" d=" M 651.17 128.04 C 675.78 127.87 700.40 128.02 725.01 127.96 C 730.18 127.98 735.85 128.57 739.94 132.06 C 744.05 135.80 744.54 141.77 744.53 146.99 C 744.44 154.57 744.75 162.17 744.36 169.75 C 743.49 174.28 741.76 179.26 737.37 181.49 C 729.94 185.23 721.38 183.58 713.40 184.06 C 715.58 186.46 717.93 188.71 720.47 190.75 C 731.55 200.34 742.56 210.03 753.32 219.98 C 745.60 220.32 737.86 220.37 730.14 220.14 C 718.07 208.10 705.77 196.31 693.64 184.33 C 685.41 184.23 677.17 184.30 668.94 184.29 C 668.53 187.64 668.85 191.00 668.83 194.35 C 668.75 195.39 668.68 196.42 668.62 197.46 C 668.54 198.85 668.49 200.24 668.50 201.64 C 668.51 204.11 668.57 206.58 668.59 209.05 C 668.60 211.03 668.62 213.00 668.66 214.98 C 668.67 216.64 668.70 218.31 668.74 219.98 L 668.09 219.98 C 662.47 219.99 656.85 220.03 651.24 219.92 C 651.22 218.16 651.20 216.41 651.22 214.66 C 651.31 207.48 651.46 200.30 651.18 193.13 C 651.08 191.80 650.99 190.48 650.92 189.16 C 651.42 168.80 651.00 148.41 651.17 128.04 M 668.63 141.00 C 668.60 142.90 668.60 144.82 668.62 146.73 C 668.80 154.77 668.60 162.81 668.73 170.85 C 684.83 171.10 700.94 170.92 717.04 170.96 C 720.41 170.86 725.27 170.79 726.48 166.89 C 727.84 161.38 727.03 155.66 727.27 150.06 C 727.75 145.68 724.92 140.93 720.12 141.09 C 702.96 140.86 685.79 141.06 668.63 141.00 Z" />
<path fill="#000000" opacity="1.00" d=" M 608.39 255.89 C 608.54 256.38 608.83 257.35 608.98 257.84 C 613.02 257.96 617.06 257.97 621.11 258.02 C 621.14 260.07 621.17 262.11 621.20 264.17 C 620.45 264.15 618.97 264.11 618.22 264.09 C 615.02 263.97 611.82 263.94 608.62 264.03 C 607.79 264.05 606.12 264.09 605.29 264.11 C 599.98 264.12 594.67 264.06 589.37 264.14 C 589.35 267.41 589.32 270.68 589.31 273.95 C 589.87 273.96 591.00 273.96 591.56 273.96 C 596.15 274.00 600.73 273.94 605.32 273.99 C 606.07 274.00 607.57 274.03 608.32 274.05 C 608.42 276.11 608.52 278.17 608.63 280.24 C 602.20 280.02 595.76 280.10 589.32 280.15 C 589.37 283.75 589.27 287.36 589.26 290.97 C 590.69 290.98 592.12 290.98 593.56 290.99 C 594.07 291.00 595.10 291.00 595.62 291.00 C 598.91 290.99 602.21 290.98 605.51 290.96 C 606.63 290.94 607.76 290.93 608.90 290.92 C 613.11 290.87 617.32 290.94 621.53 291.11 C 621.53 293.05 621.54 295.00 621.56 296.95 C 617.48 297.28 613.38 297.38 609.29 297.17 C 605.40 296.96 601.50 296.91 597.62 297.18 C 592.37 297.42 587.12 297.22 581.88 297.14 C 581.92 289.04 581.76 280.95 581.83 272.85 C 581.91 269.34 582.00 265.83 581.98 262.32 C 581.97 260.87 581.97 259.43 581.97 258.00 C 590.77 257.86 599.58 258.16 608.38 257.76 C 608.38 257.29 608.39 256.36 608.39 255.89 Z" />
<path fill="#000000" opacity="1.00" d=" M 186.23 258.25 C 195.71 257.74 205.29 257.85 214.78 258.19 C 219.70 258.33 221.47 263.59 220.86 267.75 C 218.67 268.22 216.46 268.64 214.25 269.01 C 214.05 267.40 213.85 265.80 213.66 264.20 C 204.85 264.24 196.03 264.25 187.22 264.20 C 187.20 267.42 187.15 270.65 187.11 273.88 C 196.65 274.25 206.24 273.51 215.76 274.25 C 223.22 275.24 221.48 284.49 221.44 289.83 C 221.59 293.99 218.28 297.35 214.08 297.14 C 204.46 297.21 194.79 297.48 185.19 297.00 C 180.04 296.91 177.98 291.44 178.77 287.04 C 180.44 285.38 183.24 285.65 185.42 284.98 C 185.45 286.96 185.49 288.93 185.52 290.91 C 195.27 290.97 205.02 291.06 214.76 290.85 C 214.73 287.31 214.71 283.77 214.73 280.23 C 205.14 280.01 195.51 280.67 185.96 279.90 C 181.00 279.57 179.99 274.03 180.31 270.02 C 180.06 265.54 180.31 258.66 186.23 258.25 Z" />
<path fill="#000000" opacity="1.00" d=" M 243.22 258.19 C 253.81 257.67 264.44 258.11 275.05 257.96 C 278.92 257.71 283.74 259.48 283.96 263.97 C 284.67 272.92 284.60 281.99 284.02 290.95 C 284.01 295.66 279.00 297.39 275.04 297.24 C 265.01 297.19 254.98 297.30 244.96 297.18 C 241.31 297.20 237.22 295.15 237.16 291.05 C 236.59 282.70 236.87 274.29 237.00 265.92 C 236.84 262.17 239.14 258.31 243.22 258.19 M 244.40 263.98 C 244.29 266.26 244.28 268.54 244.40 270.81 C 244.63 277.50 244.40 284.19 244.54 290.88 C 255.24 290.99 265.95 291.08 276.65 290.83 C 276.15 281.86 277.49 272.59 275.93 263.80 C 265.43 264.23 254.91 263.88 244.40 263.98 Z" />
<path fill="#000000" opacity="1.00" d=" M 302.01 258.01 C 314.89 257.98 327.78 257.85 340.66 258.08 C 340.65 260.05 340.65 262.03 340.66 264.01 C 330.32 264.48 319.96 264.12 309.61 264.22 C 309.50 267.77 309.47 271.32 309.54 274.88 C 315.36 275.02 321.19 274.91 327.01 275.02 C 327.04 277.04 327.06 279.06 327.09 281.09 C 321.27 281.31 315.44 281.21 309.62 281.23 C 309.47 286.47 309.49 291.71 309.54 296.95 C 307.00 297.19 304.45 297.24 301.91 297.15 C 301.89 284.10 301.75 271.05 302.01 258.01 Z" />
<path fill="#000000" opacity="1.00" d=" M 346.99 258.02 C 361.69 257.94 376.40 257.93 391.11 258.02 C 391.14 260.05 391.16 262.08 391.18 264.12 C 385.20 264.29 379.21 264.22 373.23 264.21 C 372.27 275.14 373.04 286.14 372.77 297.11 C 370.28 297.20 367.80 297.18 365.32 297.04 C 365.29 286.11 365.42 275.18 365.25 264.26 C 359.13 264.18 353.01 264.32 346.90 264.10 C 346.92 262.07 346.95 260.04 346.99 258.02 Z" />
<path fill="#000000" opacity="1.00" d=" M 395.09 258.00 C 397.66 257.95 400.23 257.98 402.80 258.09 C 405.15 264.85 407.89 271.47 409.78 278.38 C 409.94 278.81 410.25 279.66 410.40 280.09 C 411.42 282.59 412.45 285.09 413.51 287.58 C 416.83 279.85 419.66 271.92 422.61 264.05 C 423.46 261.87 424.38 259.71 425.66 257.74 C 427.00 257.87 428.34 258.01 429.69 258.14 C 433.24 267.57 436.63 277.06 440.40 286.39 C 445.43 278.61 447.34 269.34 450.71 260.80 C 451.08 259.85 451.47 258.91 451.87 257.97 C 453.97 258.00 456.06 258.04 458.17 257.99 C 456.44 262.30 454.87 266.68 453.39 271.08 C 450.58 279.06 447.26 286.85 444.49 294.83 C 444.11 295.44 443.36 296.65 442.98 297.25 C 441.35 297.20 439.72 297.13 438.09 297.13 C 437.41 295.37 436.73 293.63 436.07 291.87 C 433.21 283.83 430.13 275.87 427.07 267.90 C 423.25 277.56 419.34 287.19 415.65 296.90 C 413.83 296.97 412.01 297.03 410.20 297.09 C 409.14 294.25 408.09 291.40 407.02 288.57 C 406.06 286.08 404.96 283.66 403.91 281.22 C 400.96 273.49 397.88 265.80 395.09 258.00 Z" />
<path fill="#000000" opacity="1.00" d=" M 484.31 257.99 C 485.29 257.94 486.29 257.91 487.29 257.90 C 488.55 258.06 489.83 258.28 491.10 258.51 C 491.95 259.93 492.83 261.36 493.74 262.77 C 496.32 266.62 498.24 270.88 500.82 274.74 C 501.65 274.62 503.30 274.38 504.13 274.26 C 503.12 274.61 502.11 274.96 501.11 275.31 C 501.87 276.77 502.63 278.24 503.45 279.67 C 504.25 281.06 505.10 282.45 505.94 283.83 C 508.65 288.20 511.13 292.71 513.87 297.06 C 511.24 297.01 508.61 297.03 505.98 297.05 C 504.29 294.08 502.57 291.14 500.89 288.17 C 491.89 288.25 482.81 287.66 473.86 288.61 C 471.92 291.23 470.51 294.21 468.89 297.03 C 466.55 297.02 464.22 297.00 461.90 296.98 C 462.81 295.24 463.73 293.50 464.69 291.78 C 465.73 289.92 466.80 288.07 467.85 286.21 C 470.72 280.84 474.13 275.74 476.71 270.21 C 479.05 266.91 481.07 263.41 482.94 259.83 C 483.28 259.37 483.97 258.45 484.31 257.99 M 486.61 265.86 C 482.62 270.67 480.10 276.64 476.99 282.07 C 478.76 282.01 480.54 281.95 482.32 281.84 C 487.47 281.81 492.62 281.97 497.77 281.94 C 496.60 280.06 495.47 278.17 494.27 276.31 C 492.86 272.34 490.29 268.91 488.09 265.35 C 489.34 262.99 484.60 264.14 486.61 265.86 Z" />
<path fill="#000000" opacity="1.00" d=" M 525.97 257.93 C 537.60 258.28 549.32 257.31 560.90 258.40 C 568.32 261.02 564.83 270.97 565.47 276.94 C 564.74 278.24 563.95 279.51 563.19 280.79 C 559.63 282.16 555.80 282.30 552.04 282.16 C 554.19 283.96 556.32 285.80 558.44 287.65 C 561.97 290.79 565.62 293.78 569.09 296.99 C 568.50 297.01 567.30 297.06 566.71 297.08 C 555.68 299.37 551.60 285.90 543.07 282.16 C 539.83 281.94 536.60 282.13 533.37 282.16 C 533.34 287.18 533.31 292.19 533.26 297.21 C 530.84 297.14 528.43 297.07 526.02 297.01 C 525.94 288.55 526.09 280.09 525.91 271.62 C 525.87 270.06 525.83 268.50 525.83 266.94 C 525.82 263.93 525.91 260.93 525.97 257.93 M 533.45 264.32 C 533.23 268.22 533.19 272.14 533.32 276.05 C 534.09 276.03 535.63 275.99 536.40 275.97 C 542.48 276.05 548.56 275.88 554.64 276.10 C 555.72 275.82 556.80 275.53 557.89 275.24 C 558.18 271.80 558.82 268.08 557.14 264.87 C 552.41 263.30 547.15 264.11 542.24 264.22 C 539.30 264.10 536.38 264.17 533.45 264.32 Z" />
</g>
<g id="#0101016b">
<path fill="#010101" opacity="0.42" d=" M 668.63 141.00 C 685.79 141.06 702.96 140.86 720.12 141.09 C 724.92 140.93 727.75 145.68 727.27 150.06 C 724.67 147.57 722.06 144.19 718.05 144.49 C 704.70 144.40 691.34 144.58 677.99 144.42 C 674.69 144.25 671.56 145.37 668.62 146.73 C 668.60 144.82 668.60 142.90 668.63 141.00 Z" />
<path fill="#010101" opacity="0.42" d=" M 381.75 142.00 C 397.90 142.47 414.20 140.88 430.26 143.08 C 431.90 145.24 433.58 147.36 435.21 149.54 C 436.31 151.03 437.38 152.56 438.48 154.08 C 442.60 159.57 446.80 165.01 450.90 170.52 C 452.48 172.62 454.11 174.69 455.55 176.90 C 456.95 178.86 456.06 181.28 455.54 183.39 C 452.94 177.36 449.73 171.60 445.49 166.57 C 440.07 160.01 436.05 151.80 428.31 147.59 C 424.01 144.97 418.81 145.44 414.00 145.44 C 405.65 145.61 397.30 145.35 388.95 145.48 C 386.06 145.25 383.88 147.27 381.74 148.87 C 381.71 146.58 381.71 144.29 381.75 142.00 Z" />
<path fill="#010101" opacity="0.42" d=" M 64.79 169.01 C 94.17 169.00 123.55 168.94 152.94 169.04 C 152.85 186.08 153.19 203.14 152.72 220.17 C 151.52 205.15 153.06 190.00 151.97 174.97 C 152.01 171.97 148.22 171.86 146.03 171.63 C 121.69 171.56 97.33 171.66 72.99 171.58 C 70.07 171.51 67.39 172.73 64.76 173.82 C 64.76 172.22 64.77 170.61 64.79 169.01 Z" />
<path fill="#010101" opacity="0.42" d=" M 737.37 181.49 C 741.76 179.26 743.49 174.28 744.36 169.75 C 745.74 176.57 741.85 183.76 735.24 186.07 C 730.60 188.94 723.48 185.19 720.47 190.75 C 717.93 188.71 715.58 186.46 713.40 184.06 C 721.38 183.58 729.94 185.23 737.37 181.49 Z" />
<path fill="#010101" opacity="0.42" d=" M 682.94 205.30 C 684.37 204.91 685.81 204.56 687.27 204.22 L 688.24 203.99 C 683.66 210.59 673.87 208.83 668.66 214.98 C 668.62 213.00 668.60 211.03 668.59 209.05 C 673.38 207.82 678.19 206.67 682.94 205.30 Z" />
<path fill="#010101" opacity="0.42" d=" M 649.33 214.28 C 649.81 214.37 650.75 214.57 651.22 214.66 C 651.20 216.41 651.22 218.16 651.24 219.92 C 656.85 220.03 662.47 219.99 668.09 219.98 C 665.54 224.19 659.99 222.24 655.95 222.58 C 651.44 223.01 648.74 217.01 644.11 218.84 C 631.90 221.76 620.06 225.94 608.16 229.84 C 608.13 228.37 608.12 226.91 608.11 225.45 C 613.50 224.30 618.86 222.97 624.12 221.30 C 632.43 218.61 641.06 217.07 649.33 214.28 Z" />
<path fill="#010101" opacity="0.42" d=" M 244.40 263.98 C 254.91 263.88 265.43 264.23 275.93 263.80 C 275.75 265.97 275.67 268.16 275.65 270.34 C 269.68 265.80 261.91 267.87 255.00 267.41 C 251.10 267.01 247.55 268.71 244.40 270.81 C 244.28 268.54 244.29 266.26 244.40 263.98 Z" />
<path fill="#010101" opacity="0.42" d=" M 608.62 264.03 C 611.82 263.94 615.02 263.97 618.22 264.09 C 615.44 266.46 611.98 267.76 608.69 269.27 L 608.68 268.70 C 608.65 267.14 608.63 265.58 608.62 264.03 Z" />
<path fill="#010101" opacity="0.42" d=" M 486.61 265.86 C 486.98 265.73 487.72 265.48 488.09 265.35 C 490.29 268.91 492.86 272.34 494.27 276.31 C 494.38 276.80 494.59 277.77 494.69 278.26 C 494.16 278.13 493.10 277.89 492.57 277.77 C 491.72 275.31 491.23 271.82 488.01 271.52 C 484.12 272.14 481.81 275.57 480.40 278.93 C 480.82 279.57 481.64 280.84 482.06 281.48 L 482.32 281.84 C 480.54 281.95 478.76 282.01 476.99 282.07 C 480.10 276.64 482.62 270.67 486.61 265.86 Z" />
<path fill="#010101" opacity="0.42" d=" M 589.26 290.97 C 589.27 287.36 589.37 283.75 589.32 280.15 C 588.88 284.32 591.72 287.55 593.56 290.99 C 592.12 290.98 590.69 290.98 589.26 290.97 Z" />
<path fill="#010101" opacity="0.42" d=" M 432.24 296.13 C 433.52 294.71 434.79 293.29 436.07 291.87 C 436.73 293.63 437.41 295.37 438.09 297.13 C 436.83 297.36 435.60 297.68 434.40 298.08 C 433.09 298.54 431.80 299.05 430.50 299.51 C 430.34 299.35 430.02 299.02 429.86 298.86 C 430.63 297.93 431.43 297.02 432.24 296.13 Z" />
</g>
</svg>
