<svg xmlns="http://www.w3.org/2000/svg" version="1.1" xmlns:xlink="http://www.w3.org/1999/xlink" xmlns:svgjs="http://svgjs.com/svgjs" width="1440" height="560" preserveAspectRatio="none" viewBox="0 0 1440 560"><g mask="url(&quot;#SvgjsMask1000&quot;)" fill="none"><path d="M -1199.3859509951824,410 C -1055.39,336 -767.39,15.2 -479.3859509951824,40 C -191.39,64.8 -47.39,504.2 240.61404900481762,534 C 528.61,563.8 720.74,183.8 960.6140490048176,189 C 1200.49,194.2 1344.12,485.8 1440,560" stroke="rgba(75, 0, 130, 1)" stroke-width="2"></path><path d="M -487.90276427059706,24 C -343.9,99.6 -55.9,352.2 232.09723572940294,402 C 520.1,451.8 664.1,291.6 952.0972357294029,273 C 1240.1,254.4 1574.52,309 1672.0972357294029,309 C 1769.68,309 1486.42,280.2 1440,273" stroke="rgba(75, 0, 130, 1)" stroke-width="2"></path><path d="M -420.2236834889768,319 C -276.22,296.8 11.78,202.8 299.7763165110232,208 C 587.78,213.2 731.78,376.4 1019.7763165110232,345 C 1307.78,313.6 1655.73,47.6 1739.7763165110232,51 C 1823.82,54.4 1499.96,299.8 1440,362" stroke="rgba(75, 0, 130, 1)" stroke-width="2"></path><path d="M -502.09328485112064,490 C -358.09,416 -70.09,148 217.90671514887936,120 C 505.91,92 649.91,349.2 937.9067151488794,350 C 1225.91,350.8 1557.49,123.4 1657.9067151488794,124 C 1758.33,124.6 1483.58,307.2 1440,353" stroke="rgba(6, 0, 255, 0.35)" stroke-width="2"></path><path d="M -805.7578774528155,236 C -661.76,259 -373.76,344.4 -85.75787745281546,351 C 202.24,357.6 346.24,249.6 634.2421225471845,269 C 922.24,288.4 1193.09,468 1354.2421225471846,448 C 1515.39,428 1422.85,224.8 1440,169" stroke="rgba(6, 0, 255, 0.35)" stroke-width="2"></path><path d="M -1103.7460027580673,446 C -959.75,376 -671.75,79.8 -383.7460027580672,96 C -95.75,112.2 48.25,542.2 336.2539972419328,527 C 624.25,511.8 835.5,62 1056.2539972419327,20 C 1277,-22 1363.25,257.6 1440,317" stroke="rgba(75, 0, 130, 1)" stroke-width="2"></path><path d="M -298.90696830917466,398 C -154.91,361.2 133.09,228.4 421.09303169082534,214 C 709.09,199.6 853.09,320.6 1141.0930316908252,326 C 1429.09,331.4 1801.31,210.8 1861.0930316908252,241 C 1920.87,271.2 1524.22,429.8 1440,477" stroke="rgba(75, 0, 130, 1)" stroke-width="2"></path><path d="M -51.465165308916994,154 C 92.53,222.8 380.53,480.2 668.534834691083,498 C 956.53,515.8 1100.53,233 1388.534834691083,243 C 1676.53,253 2098.24,559.6 2108.5348346910832,548 C 2118.83,536.4 1573.71,257.6 1440,185" stroke="rgba(148, 0, 211, 1)" stroke-width="2"></path></g><defs><mask id="SvgjsMask1000"><rect width="1440" height="560" fill="#ffffff"></rect></mask></defs></svg>