<svg width="1440" height="229" viewBox="0 0 1440 229" fill="none" xmlns="http://www.w3.org/2000/svg">
<g clip-path="url(#clip0_82_198)">
<path d="M-8.00002 221.998V-1.06614e-05C-6.29799 0.680227 -4.62135 1.36047 -2.91932 2.04071C-1.8793 2.45716 -0.835575 2.87307 0.21193 3.28843C69.2459 30.6236 153.827 51.088 246.947 62.9863C340.067 74.8846 439.047 77.8743 535.686 71.7078C605.582 67.2639 671.261 60.4571 710.538 50.0341C1005.92 -28.3545 1341.08 46.3462 1434.92 67.2335C1436.62 67.6037 1438.32 67.9837 1440 68.3739V221.998C1440 223.855 1438.13 225.636 1434.79 226.949C1431.46 228.262 1426.93 229 1422.22 229L9.78244 229C5.06624 229 0.543143 228.262 -2.79171 226.949C-6.12657 225.636 -8.00001 223.855 -8.00002 221.998Z" fill="#3F3D56"/>
<path d="M86.8567 166C81.2955 166 76.7872 170.477 76.7872 176C76.7872 181.523 81.2955 186 86.8567 186C92.418 186 96.9263 181.523 96.9263 176C96.9263 170.477 92.418 166 86.8567 166Z" fill="#D23ACC"/>
<path d="M834.93 173C829.369 173 824.861 177.477 824.861 183C824.861 188.523 829.369 193 834.93 193C840.492 193 845 188.523 845 183C845 177.477 840.492 173 834.93 173Z" fill="#D23ACC"/>
<path d="M215.747 132C214.635 132 213.733 132.895 213.733 134C213.733 135.105 214.635 136 215.747 136C216.859 136 217.761 135.105 217.761 134C217.761 132.895 216.859 132 215.747 132Z" fill="#D23ACC"/>
<path d="M318.456 93C317.344 93 316.442 93.8954 316.442 95C316.442 96.1046 317.344 97 318.456 97C319.569 97 320.47 96.1046 320.47 95C320.47 93.8954 319.569 93 318.456 93Z" fill="#D23ACC"/>
<path d="M432.242 144C431.13 144 430.228 144.895 430.228 146C430.228 147.105 431.13 148 432.242 148C433.354 148 434.256 147.105 434.256 146C434.256 144.895 433.354 144 432.242 144Z" fill="#FF6584"/>
<path d="M383.908 194C382.796 194 381.894 194.895 381.894 196C381.894 197.105 382.796 198 383.908 198C385.02 198 385.922 197.105 385.922 196C385.922 194.895 385.02 194 383.908 194Z" fill="white"/>
<path d="M47.5856 205C46.4733 205 45.5717 205.895 45.5717 207C45.5717 208.105 46.4733 209 47.5856 209C48.6978 209 49.5995 208.105 49.5995 207C49.5995 205.895 48.6978 205 47.5856 205Z" fill="white"/>
<path d="M151.302 171C150.19 171 149.288 171.895 149.288 173C149.288 174.105 150.19 175 151.302 175C152.414 175 153.316 174.105 153.316 173C153.316 171.895 152.414 171 151.302 171Z" fill="white"/>
<path d="M32.4812 138C31.369 138 30.4673 138.895 30.4673 140C30.4673 141.105 31.369 142 32.4812 142C33.5935 142 34.4951 141.105 34.4951 140C34.4951 138.895 33.5935 138 32.4812 138Z" fill="white"/>
<path d="M385.922 105C384.81 105 383.908 105.895 383.908 107C383.908 108.105 384.81 109 385.922 109C387.034 109 387.936 108.105 387.936 107C387.936 105.895 387.034 105 385.922 105Z" fill="white"/>
<path d="M539.986 111C538.874 111 537.972 111.895 537.972 113C537.972 114.105 538.874 115 539.986 115C541.098 115 542 114.105 542 113C542 111.895 541.098 111 539.986 111Z" fill="#FF6584"/>
<path d="M464.425 89.913L466.324 89.749L466.753 87.904L467.498 89.647L469.397 89.482L467.959 90.724L468.704 92.467L467.069 91.492L465.63 92.734L466.059 90.889L464.425 89.913Z" fill="white"/>
<path d="M221.749 195.913L223.648 195.749L224.077 193.904L224.822 195.647L226.721 195.482L225.283 196.724L226.028 198.467L224.393 197.492L222.954 198.734L223.383 196.889L221.749 195.913Z" fill="white"/>
<path d="M106.956 114.913L108.856 114.749L109.285 112.904L110.03 114.647L111.929 114.482L110.49 115.724L111.235 117.467L109.601 116.492L108.162 117.734L108.591 115.889L106.956 114.913Z" fill="white"/>
<path d="M320.431 137.913L322.33 137.749L322.759 135.904L323.504 137.647L325.403 137.482L323.964 138.724L324.709 140.467L323.075 139.492L321.636 140.734L322.065 138.889L320.431 137.913Z" fill="white"/>
<path d="M410.05 48.913L411.949 48.749L412.378 46.904L413.123 48.647L415.022 48.482L413.583 49.724L414.328 51.467L412.694 50.492L411.255 51.734L411.684 49.889L410.05 48.913Z" fill="white"/>
<path d="M30.428 50.913L32.3272 50.749L32.7561 48.904L33.5012 50.647L35.4004 50.482L33.9614 51.724L34.7066 53.467L33.0723 52.492L31.6333 53.734L32.0623 51.889L30.428 50.913Z" fill="white"/>
<path d="M517.794 166.913L519.693 166.749L520.122 164.904L520.867 166.647L522.766 166.482L521.327 167.724L522.072 169.467L520.438 168.492L518.999 169.734L519.428 167.889L517.794 166.913Z" fill="white"/>
<path d="M1087.75 136C1086.63 136 1085.73 136.895 1085.73 138C1085.73 139.105 1086.63 140 1087.75 140C1088.86 140 1089.76 139.105 1089.76 138C1089.76 136.895 1088.86 136 1087.75 136Z" fill="#D23ACC"/>
<path d="M1190.46 97C1189.34 97 1188.44 97.8954 1188.44 99C1188.44 100.105 1189.34 101 1190.46 101C1191.57 101 1192.47 100.105 1192.47 99C1192.47 97.8954 1191.57 97 1190.46 97Z" fill="#D23ACC"/>
<path d="M1304.24 148C1303.13 148 1302.23 148.895 1302.23 150C1302.23 151.105 1303.13 152 1304.24 152C1305.35 152 1306.26 151.105 1306.26 150C1306.26 148.895 1305.35 148 1304.24 148Z" fill="#FF6584"/>
<path d="M1255.91 198C1254.8 198 1253.89 198.895 1253.89 200C1253.89 201.105 1254.8 202 1255.91 202C1257.02 202 1257.92 201.105 1257.92 200C1257.92 198.895 1257.02 198 1255.91 198Z" fill="white"/>
<path d="M919.586 209C918.473 209 917.572 209.895 917.572 211C917.572 212.105 918.473 213 919.586 213C920.698 213 921.6 212.105 921.6 211C921.6 209.895 920.698 209 919.586 209Z" fill="white"/>
<path d="M1023.3 175C1022.19 175 1021.29 175.895 1021.29 177C1021.29 178.105 1022.19 179 1023.3 179C1024.41 179 1025.32 178.105 1025.32 177C1025.32 175.895 1024.41 175 1023.3 175Z" fill="white"/>
<path d="M904.481 142C903.369 142 902.467 142.895 902.467 144C902.467 145.105 903.369 146 904.481 146C905.593 146 906.495 145.105 906.495 144C906.495 142.895 905.593 142 904.481 142Z" fill="white"/>
<path d="M1257.92 109C1256.81 109 1255.91 109.895 1255.91 111C1255.91 112.105 1256.81 113 1257.92 113C1259.03 113 1259.94 112.105 1259.94 111C1259.94 109.895 1259.03 109 1257.92 109Z" fill="white"/>
<path d="M1411.99 115C1410.87 115 1409.97 115.895 1409.97 117C1409.97 118.105 1410.87 119 1411.99 119C1413.1 119 1414 118.105 1414 117C1414 115.895 1413.1 115 1411.99 115Z" fill="#FF6584"/>
<path d="M1336.43 93.913L1338.32 93.749L1338.75 91.904L1339.5 93.647L1341.4 93.482L1339.96 94.724L1340.7 96.467L1339.07 95.492L1337.63 96.734L1338.06 94.889L1336.43 93.913Z" fill="white"/>
<path d="M1093.75 199.913L1095.65 199.749L1096.08 197.904L1096.82 199.647L1098.72 199.482L1097.28 200.724L1098.03 202.467L1096.39 201.492L1094.95 202.734L1095.38 200.889L1093.75 199.913Z" fill="white"/>
<path d="M978.956 118.913L980.855 118.749L981.284 116.904L982.03 118.647L983.929 118.482L982.49 119.724L983.235 121.467L981.601 120.492L980.162 121.734L980.591 119.889L978.956 118.913Z" fill="white"/>
<path d="M1192.43 141.913L1194.33 141.749L1194.76 139.904L1195.5 141.647L1197.4 141.482L1195.96 142.724L1196.71 144.467L1195.08 143.492L1193.64 144.734L1194.07 142.889L1192.43 141.913Z" fill="white"/>
<path d="M1282.05 52.913L1283.95 52.749L1284.38 50.904L1285.12 52.647L1287.02 52.482L1285.58 53.724L1286.33 55.467L1284.69 54.492L1283.25 55.734L1283.68 53.889L1282.05 52.913Z" fill="white"/>
<path d="M902.428 54.913L904.327 54.749L904.756 52.904L905.501 54.647L907.4 54.482L905.961 55.724L906.707 57.467L905.072 56.492L903.633 57.734L904.062 55.889L902.428 54.913Z" fill="white"/>
<path d="M567.934 177.179L569.834 177.015L570.262 175.17L571.008 176.913L572.907 176.748L571.468 177.99L572.213 179.733L570.579 178.758L569.14 180L569.569 178.155L567.934 177.179Z" fill="white"/>
<path d="M781.409 200.179L783.308 200.015L783.737 198.17L784.482 199.913L786.381 199.748L784.942 200.99L785.687 202.733L784.053 201.758L782.614 203L783.043 201.155L781.409 200.179Z" fill="white"/>
<path d="M871.028 111.179L872.927 111.015L873.356 109.17L874.101 110.913L876 110.748L874.561 111.99L875.306 113.733L873.672 112.758L872.233 114L872.662 112.155L871.028 111.179Z" fill="white"/>
<path d="M491.406 113.179L493.305 113.015L493.734 111.17L494.479 112.913L496.378 112.748L494.939 113.99L495.685 115.733L494.05 114.758L492.611 116L493.04 114.155L491.406 113.179Z" fill="white"/>
<path d="M565 137.08L566.146 136.91L566.405 135L566.854 136.804L568 136.634L567.132 137.919L567.581 139.724L566.595 138.714L565.727 140L565.986 138.09L565 137.08Z" fill="white"/>
<path d="M690 160.08L691.146 159.91L691.405 158L691.854 159.804L693 159.634L692.132 160.919L692.581 162.724L691.595 161.714L690.727 163L690.986 161.09L690 160.08Z" fill="white"/>
<path d="M742 71.0797L743.146 70.9099L743.405 69L743.854 70.8043L745 70.6335L744.132 71.9193L744.581 73.7236L743.595 72.7143L742.727 74L742.986 72.0901L742 71.0797Z" fill="white"/>
<path d="M520 73.0797L521.146 72.9099L521.405 71L521.854 72.8043L523 72.6335L522.132 73.9193L522.581 75.7236L521.595 74.7143L520.727 76L520.986 74.0901L520 73.0797Z" fill="white"/>
<path d="M1389.79 170.913L1391.69 170.749L1392.12 168.904L1392.87 170.647L1394.77 170.482L1393.33 171.724L1394.07 173.467L1392.44 172.492L1391 173.734L1391.43 171.889L1389.79 170.913Z" fill="white"/>
</g>
<defs>
<clipPath id="clip0_82_198">
<rect width="1448" height="229" fill="white" transform="translate(1440 229) rotate(-180)"/>
</clipPath>
</defs>
</svg>
