<svg width="1440" height="273" viewBox="0 0 1440 273" fill="none" xmlns="http://www.w3.org/2000/svg">
<path d="M1442 7.00243V229C1440.3 228.32 1438.62 227.64 1436.92 226.959C1435.88 226.543 1434.84 226.127 1433.79 225.712C1364.75 198.376 1280.17 177.912 1187.05 166.014C1093.93 154.115 994.953 151.126 898.314 157.292C828.418 161.736 762.739 168.543 723.462 178.966C428.076 257.354 92.9213 182.654 -0.919298 161.767C-2.62133 161.396 -4.32337 161.016 -6 160.626V7.00245C-6 5.14528 -4.12647 3.36419 -0.791614 2.05098C2.54324 0.737766 7.06626 0 11.7825 0H1424.22C1428.93 0 1433.46 0.737755 1436.79 2.05096C1440.13 3.36417 1442 5.14527 1442 7.00243Z" fill="#3F3D56"/>
<path d="M1347.14 63C1352.7 63 1357.21 58.5228 1357.21 53C1357.21 47.4772 1352.7 43 1347.14 43C1341.58 43 1337.07 47.4772 1337.07 53C1337.07 58.5228 1341.58 63 1347.14 63Z" fill="#D23ACC"/>
<path d="M599.07 56C604.631 56 609.139 51.5228 609.139 46C609.139 40.4772 604.631 36 599.07 36C593.508 36 589 40.4772 589 46C589 51.5228 593.508 56 599.07 56Z" fill="#D23ACC"/>
<path d="M1218.25 97C1219.37 97 1220.27 96.1046 1220.27 95C1220.27 93.8954 1219.37 93 1218.25 93C1217.14 93 1216.24 93.8954 1216.24 95C1216.24 96.1046 1217.14 97 1218.25 97Z" fill="#D23ACC"/>
<path d="M1115.54 136C1116.66 136 1117.56 135.105 1117.56 134C1117.56 132.895 1116.66 132 1115.54 132C1114.43 132 1113.53 132.895 1113.53 134C1113.53 135.105 1114.43 136 1115.54 136Z" fill="#D23ACC"/>
<path d="M1001.76 85C1002.87 85 1003.77 84.1046 1003.77 83C1003.77 81.8954 1002.87 81 1001.76 81C1000.65 81 999.744 81.8954 999.744 83C999.744 84.1046 1000.65 85 1001.76 85Z" fill="#FF6584"/>
<path d="M1050.09 35C1051.2 35 1052.11 34.1046 1052.11 33C1052.11 31.8954 1051.2 31 1050.09 31C1048.98 31 1048.08 31.8954 1048.08 33C1048.08 34.1046 1048.98 35 1050.09 35Z" fill="white"/>
<path d="M1386.41 24C1387.53 24 1388.43 23.1046 1388.43 22C1388.43 20.8954 1387.53 20 1386.41 20C1385.3 20 1384.4 20.8954 1384.4 22C1384.4 23.1046 1385.3 24 1386.41 24Z" fill="white"/>
<path d="M1282.7 58C1283.81 58 1284.71 57.1046 1284.71 56C1284.71 54.8954 1283.81 54 1282.7 54C1281.59 54 1280.68 54.8954 1280.68 56C1280.68 57.1046 1281.59 58 1282.7 58Z" fill="white"/>
<path d="M1401.52 91C1402.63 91 1403.53 90.1046 1403.53 89C1403.53 87.8954 1402.63 87 1401.52 87C1400.41 87 1399.5 87.8954 1399.5 89C1399.5 90.1046 1400.41 91 1401.52 91Z" fill="white"/>
<path d="M1048.08 124C1049.19 124 1050.09 123.105 1050.09 122C1050.09 120.895 1049.19 120 1048.08 120C1046.97 120 1046.06 120.895 1046.06 122C1046.06 123.105 1046.97 124 1048.08 124Z" fill="white"/>
<path d="M894.014 118C895.126 118 896.028 117.105 896.028 116C896.028 114.895 895.126 114 894.014 114C892.902 114 892 114.895 892 116C892 117.105 892.902 118 894.014 118Z" fill="#FF6584"/>
<path d="M969.575 139.087L967.676 139.251L967.247 141.096L966.502 139.353L964.603 139.518L966.041 138.276L965.296 136.533L966.931 137.508L968.37 136.266L967.941 138.111L969.575 139.087Z" fill="white"/>
<path d="M1212.25 33.087L1210.35 33.251L1209.92 35.096L1209.18 33.353L1207.28 33.518L1208.72 32.276L1207.97 30.533L1209.61 31.508L1211.05 30.266L1210.62 32.111L1212.25 33.087Z" fill="white"/>
<path d="M1327.04 114.087L1325.14 114.251L1324.72 116.096L1323.97 114.353L1322.07 114.518L1323.51 113.276L1322.77 111.533L1324.4 112.508L1325.84 111.266L1325.41 113.111L1327.04 114.087Z" fill="white"/>
<path d="M1113.57 91.087L1111.67 91.251L1111.24 93.096L1110.5 91.353L1108.6 91.518L1110.04 90.276L1109.29 88.533L1110.92 89.508L1112.36 88.266L1111.93 90.111L1113.57 91.087Z" fill="white"/>
<path d="M1023.95 180.087L1022.05 180.251L1021.62 182.096L1020.88 180.353L1018.98 180.518L1020.42 179.276L1019.67 177.533L1021.31 178.508L1022.75 177.266L1022.32 179.111L1023.95 180.087Z" fill="white"/>
<path d="M1403.57 178.087L1401.67 178.251L1401.24 180.096L1400.5 178.353L1398.6 178.518L1400.04 177.276L1399.29 175.533L1400.93 176.508L1402.37 175.266L1401.94 177.111L1403.57 178.087Z" fill="white"/>
<path d="M916.206 62.087L914.307 62.251L913.878 64.096L913.133 62.353L911.234 62.518L912.673 61.276L911.928 59.533L913.562 60.508L915.001 59.266L914.572 61.111L916.206 62.087Z" fill="white"/>
<path d="M346.253 93C347.365 93 348.267 92.1046 348.267 91C348.267 89.8954 347.365 89 346.253 89C345.141 89 344.239 89.8954 344.239 91C344.239 92.1046 345.141 93 346.253 93Z" fill="#D23ACC"/>
<path d="M243.544 132C244.656 132 245.558 131.105 245.558 130C245.558 128.895 244.656 128 243.544 128C242.431 128 241.53 128.895 241.53 130C241.53 131.105 242.431 132 243.544 132Z" fill="#D23ACC"/>
<path d="M129.758 81C130.87 81 131.772 80.1046 131.772 79C131.772 77.8954 130.87 77 129.758 77C128.646 77 127.744 77.8954 127.744 79C127.744 80.1046 128.646 81 129.758 81Z" fill="#FF6584"/>
<path d="M178.092 31C179.204 31 180.106 30.1046 180.106 29C180.106 27.8954 179.204 27 178.092 27C176.98 27 176.078 27.8954 176.078 29C176.078 30.1046 176.98 31 178.092 31Z" fill="white"/>
<path d="M514.414 20C515.527 20 516.428 19.1046 516.428 18C516.428 16.8954 515.527 16 514.414 16C513.302 16 512.4 16.8954 512.4 18C512.4 19.1046 513.302 20 514.414 20Z" fill="white"/>
<path d="M410.698 54C411.81 54 412.712 53.1046 412.712 52C412.712 50.8954 411.81 50 410.698 50C409.586 50 408.684 50.8954 408.684 52C408.684 53.1046 409.586 54 410.698 54Z" fill="white"/>
<path d="M529.519 87C530.631 87 531.533 86.1046 531.533 85C531.533 83.8954 530.631 83 529.519 83C528.407 83 527.505 83.8954 527.505 85C527.505 86.1046 528.407 87 529.519 87Z" fill="white"/>
<path d="M176.078 120C177.19 120 178.092 119.105 178.092 118C178.092 116.895 177.19 116 176.078 116C174.966 116 174.064 116.895 174.064 118C174.064 119.105 174.966 120 176.078 120Z" fill="white"/>
<path d="M22.0139 114C23.1262 114 24.0278 113.105 24.0278 112C24.0278 110.895 23.1262 110 22.0139 110C20.9017 110 20 110.895 20 112C20 113.105 20.9017 114 22.0139 114Z" fill="#FF6584"/>
<path d="M97.5749 135.087L95.6758 135.251L95.2468 137.096L94.5017 135.353L92.6025 135.518L94.0415 134.276L93.2963 132.533L94.9306 133.508L96.3696 132.266L95.9406 134.111L97.5749 135.087Z" fill="white"/>
<path d="M340.251 29.087L338.352 29.251L337.923 31.096L337.178 29.353L335.279 29.518L336.717 28.276L335.972 26.533L337.607 27.508L339.046 26.266L338.617 28.111L340.251 29.087Z" fill="white"/>
<path d="M455.044 110.087L453.145 110.251L452.716 112.096L451.97 110.353L450.071 110.518L451.51 109.276L450.765 107.533L452.399 108.508L453.838 107.266L453.409 109.111L455.044 110.087Z" fill="white"/>
<path d="M241.569 87.087L239.67 87.251L239.241 89.096L238.496 87.353L236.597 87.518L238.036 86.276L237.291 84.533L238.925 85.508L240.364 84.266L239.935 86.111L241.569 87.087Z" fill="white"/>
<path d="M151.95 176.087L150.051 176.251L149.622 178.096L148.877 176.353L146.978 176.518L148.417 175.276L147.672 173.533L149.306 174.508L150.745 173.266L150.316 175.111L151.95 176.087Z" fill="white"/>
<path d="M531.572 174.087L529.673 174.251L529.244 176.096L528.499 174.353L526.6 174.518L528.039 173.276L527.293 171.533L528.928 172.508L530.367 171.266L529.938 173.111L531.572 174.087Z" fill="white"/>
<path d="M866.066 51.821L864.166 51.985L863.738 53.83L862.992 52.087L861.093 52.252L862.532 51.01L861.787 49.267L863.421 50.242L864.86 49L864.431 50.845L866.066 51.821Z" fill="white"/>
<path d="M652.591 28.821L650.692 28.985L650.263 30.83L649.518 29.087L647.619 29.252L649.058 28.01L648.313 26.267L649.947 27.242L651.386 26L650.957 27.845L652.591 28.821Z" fill="white"/>
<path d="M562.972 117.821L561.073 117.985L560.644 119.83L559.899 118.087L558 118.252L559.439 117.01L558.694 115.267L560.328 116.242L561.767 115L561.338 116.845L562.972 117.821Z" fill="white"/>
<path d="M942.594 115.821L940.695 115.985L940.266 117.83L939.521 116.087L937.622 116.252L939.061 115.01L938.315 113.267L939.95 114.242L941.389 113L940.96 114.845L942.594 115.821Z" fill="white"/>
<path d="M869 91.9203L867.854 92.0901L867.595 94L867.146 92.1956L866 92.3665L866.868 91.0807L866.419 89.2764L867.405 90.2857L868.273 89L868.014 90.9099L869 91.9203Z" fill="white"/>
<path d="M744 68.9203L742.854 69.0901L742.595 71L742.146 69.1956L741 69.3665L741.868 68.0807L741.419 66.2764L742.405 67.2857L743.273 66L743.014 67.9099L744 68.9203Z" fill="white"/>
<path d="M692 157.92L690.854 158.09L690.595 160L690.146 158.196L689 158.366L689.868 157.081L689.419 155.276L690.405 156.286L691.273 155L691.014 156.91L692 157.92Z" fill="white"/>
<path d="M914 155.92L912.854 156.09L912.595 158L912.146 156.196L911 156.366L911.868 155.081L911.419 153.276L912.405 154.286L913.273 153L913.014 154.91L914 155.92Z" fill="white"/>
<path d="M44.2064 58.087L42.3072 58.251L41.8783 60.096L41.1331 58.353L39.234 58.518L40.6729 57.276L39.9278 55.533L41.5621 56.508L43.001 55.266L42.5721 57.111L44.2064 58.087Z" fill="white"/>
</svg>
