<svg width="1440" height="250" viewBox="0 0 1440 250" fill="none" xmlns="http://www.w3.org/2000/svg">
<g clip-path="url(#clip0_82_55)">
<path d="M1442 33.8189C1442 82 1442 250 1442 250C1440.3 249.338 1438.62 248.675 1436.92 248.013C1435.88 247.607 1434.84 247.202 1433.79 246.798C1364.75 220.179 1280.17 200.251 1187.05 188.664C1093.93 177.077 994.953 174.166 898.314 180.171C828.418 184.499 762.739 191.127 723.462 201.277C428.076 277.612 92.9213 204.868 -0.919304 184.528C-2.62134 184.168 -4.32336 183.798 -5.99999 183.418V33.819C-5.99999 32.0105 -4.12648 30.276 -0.791618 28.9972C2.54324 27.7184 -203.713 -182.151 11.7825 27C227.278 236.151 1442 33.8189 1442 33.8189C1442 33.8189 1469.17 113.221 1472.5 114.5C1475.83 115.779 1442 -14.3621 1442 33.8189Z" fill="#3F3D56"/>
<path d="M1347.14 90C1352.7 90 1357.21 85.5228 1357.21 80C1357.21 74.4772 1352.7 70 1347.14 70C1341.58 70 1337.07 74.4772 1337.07 80C1337.07 85.5228 1341.58 90 1347.14 90Z" fill="#D23ACC"/>
<path d="M344.07 201C349.631 201 354.139 196.523 354.139 191C354.139 185.477 349.631 181 344.07 181C338.508 181 334 185.477 334 191C334 196.523 338.508 201 344.07 201Z" fill="#D23ACC"/>
<path d="M1218.25 124C1219.37 124 1220.27 123.105 1220.27 122C1220.27 120.895 1219.37 120 1218.25 120C1217.14 120 1216.24 120.895 1216.24 122C1216.24 123.105 1217.14 124 1218.25 124Z" fill="#D23ACC"/>
<path d="M1115.54 163C1116.66 163 1117.56 162.105 1117.56 161C1117.56 159.895 1116.66 159 1115.54 159C1114.43 159 1113.53 159.895 1113.53 161C1113.53 162.105 1114.43 163 1115.54 163Z" fill="#D23ACC"/>
<path d="M1001.76 112C1002.87 112 1003.77 111.105 1003.77 110C1003.77 108.895 1002.87 108 1001.76 108C1000.65 108 999.744 108.895 999.744 110C999.744 111.105 1000.65 112 1001.76 112Z" fill="#FF6584"/>
<path d="M1050.09 62C1051.2 62 1052.11 61.1046 1052.11 60C1052.11 58.8954 1051.2 58 1050.09 58C1048.98 58 1048.08 58.8954 1048.08 60C1048.08 61.1046 1048.98 62 1050.09 62Z" fill="white"/>
<path d="M1386.41 51C1387.53 51 1388.43 50.1046 1388.43 49C1388.43 47.8954 1387.53 47 1386.41 47C1385.3 47 1384.4 47.8954 1384.4 49C1384.4 50.1046 1385.3 51 1386.41 51Z" fill="white"/>
<path d="M1282.7 85C1283.81 85 1284.71 84.1046 1284.71 83C1284.71 81.8954 1283.81 81 1282.7 81C1281.59 81 1280.68 81.8954 1280.68 83C1280.68 84.1046 1281.59 85 1282.7 85Z" fill="white"/>
<path d="M1401.52 118C1402.63 118 1403.53 117.105 1403.53 116C1403.53 114.895 1402.63 114 1401.52 114C1400.41 114 1399.5 114.895 1399.5 116C1399.5 117.105 1400.41 118 1401.52 118Z" fill="white"/>
<path d="M1048.08 151C1049.19 151 1050.09 150.105 1050.09 149C1050.09 147.895 1049.19 147 1048.08 147C1046.97 147 1046.06 147.895 1046.06 149C1046.06 150.105 1046.97 151 1048.08 151Z" fill="white"/>
<path d="M739.014 153C740.126 153 741.028 152.105 741.028 151C741.028 149.895 740.126 149 739.014 149C737.902 149 737 149.895 737 151C737 152.105 737.902 153 739.014 153Z" fill="#FF6584"/>
<path d="M969.575 166.087L967.676 166.251L967.247 168.096L966.502 166.353L964.603 166.518L966.041 165.276L965.296 163.533L966.931 164.508L968.37 163.266L967.941 165.111L969.575 166.087Z" fill="white"/>
<path d="M1212.25 60.087L1210.35 60.251L1209.92 62.096L1209.18 60.353L1207.28 60.518L1208.72 59.276L1207.97 57.533L1209.61 58.508L1211.05 57.266L1210.62 59.111L1212.25 60.087Z" fill="white"/>
<path d="M1327.04 141.087L1325.14 141.251L1324.72 143.096L1323.97 141.353L1322.07 141.518L1323.51 140.276L1322.77 138.533L1324.4 139.508L1325.84 138.266L1325.41 140.111L1327.04 141.087Z" fill="white"/>
<path d="M1113.57 118.087L1111.67 118.251L1111.24 120.096L1110.5 118.353L1108.6 118.518L1110.04 117.276L1109.29 115.533L1110.92 116.508L1112.36 115.266L1111.93 117.111L1113.57 118.087Z" fill="white"/>
<path d="M1023.95 207.087L1022.05 207.251L1021.62 209.096L1020.88 207.353L1018.98 207.518L1020.42 206.276L1019.67 204.533L1021.31 205.508L1022.75 204.266L1022.32 206.111L1023.95 207.087Z" fill="white"/>
<path d="M1403.57 205.087L1401.67 205.251L1401.24 207.096L1400.5 205.353L1398.6 205.518L1400.04 204.276L1399.29 202.533L1400.93 203.508L1402.37 202.266L1401.94 204.111L1403.57 205.087Z" fill="white"/>
<path d="M916.206 89.087L914.307 89.251L913.878 91.096L913.133 89.353L911.234 89.518L912.673 88.276L911.928 86.533L913.562 87.508L915.001 86.266L914.572 88.111L916.206 89.087Z" fill="white"/>
<path d="M346.253 120C347.365 120 348.267 119.105 348.267 118C348.267 116.895 347.365 116 346.253 116C345.141 116 344.239 116.895 344.239 118C344.239 119.105 345.141 120 346.253 120Z" fill="#D23ACC"/>
<path d="M243.544 159C244.656 159 245.558 158.105 245.558 157C245.558 155.895 244.656 155 243.544 155C242.431 155 241.53 155.895 241.53 157C241.53 158.105 242.431 159 243.544 159Z" fill="#D23ACC"/>
<path d="M129.758 108C130.87 108 131.772 107.105 131.772 106C131.772 104.895 130.87 104 129.758 104C128.646 104 127.744 104.895 127.744 106C127.744 107.105 128.646 108 129.758 108Z" fill="#FF6584"/>
<path d="M178.092 58C179.204 58 180.106 57.1046 180.106 56C180.106 54.8954 179.204 54 178.092 54C176.98 54 176.078 54.8954 176.078 56C176.078 57.1046 176.98 58 178.092 58Z" fill="white"/>
<path d="M514.414 47C515.527 47 516.428 46.1046 516.428 45C516.428 43.8954 515.527 43 514.414 43C513.302 43 512.4 43.8954 512.4 45C512.4 46.1046 513.302 47 514.414 47Z" fill="white"/>
<path d="M410.698 81C411.81 81 412.712 80.1046 412.712 79C412.712 77.8954 411.81 77 410.698 77C409.586 77 408.684 77.8954 408.684 79C408.684 80.1046 409.586 81 410.698 81Z" fill="white"/>
<path d="M529.519 114C530.631 114 531.533 113.105 531.533 112C531.533 110.895 530.631 110 529.519 110C528.407 110 527.505 110.895 527.505 112C527.505 113.105 528.407 114 529.519 114Z" fill="white"/>
<path d="M176.078 147C177.19 147 178.092 146.105 178.092 145C178.092 143.895 177.19 143 176.078 143C174.966 143 174.064 143.895 174.064 145C174.064 146.105 174.966 147 176.078 147Z" fill="white"/>
<path d="M22.0139 141C23.1262 141 24.0278 140.105 24.0278 139C24.0278 137.895 23.1262 137 22.0139 137C20.9017 137 20 137.895 20 139C20 140.105 20.9017 141 22.0139 141Z" fill="#FF6584"/>
<path d="M97.5749 162.087L95.6758 162.251L95.2468 164.096L94.5017 162.353L92.6025 162.518L94.0415 161.276L93.2963 159.533L94.9306 160.508L96.3696 159.266L95.9406 161.111L97.5749 162.087Z" fill="white"/>
<path d="M340.251 56.087L338.352 56.251L337.923 58.096L337.178 56.353L335.279 56.518L336.717 55.276L335.972 53.533L337.607 54.508L339.046 53.266L338.617 55.111L340.251 56.087Z" fill="white"/>
<path d="M455.044 137.087L453.145 137.251L452.716 139.096L451.97 137.353L450.071 137.518L451.51 136.276L450.765 134.533L452.399 135.508L453.838 134.266L453.409 136.111L455.044 137.087Z" fill="white"/>
<path d="M241.569 114.087L239.67 114.251L239.241 116.096L238.496 114.353L236.597 114.518L238.036 113.276L237.291 111.533L238.925 112.508L240.364 111.266L239.935 113.111L241.569 114.087Z" fill="white"/>
<path d="M151.95 203.087L150.051 203.251L149.622 205.096L148.877 203.353L146.978 203.518L148.417 202.276L147.672 200.533L149.306 201.508L150.745 200.266L150.316 202.111L151.95 203.087Z" fill="white"/>
<path d="M531.572 201.087L529.673 201.251L529.244 203.096L528.499 201.353L526.6 201.518L528.039 200.276L527.293 198.533L528.928 199.508L530.367 198.266L529.938 200.111L531.572 201.087Z" fill="white"/>
<path d="M866.066 78.821L864.166 78.985L863.738 80.83L862.992 79.087L861.093 79.252L862.532 78.01L861.787 76.267L863.421 77.242L864.86 76L864.431 77.845L866.066 78.821Z" fill="white"/>
<path d="M652.591 55.821L650.692 55.985L650.263 57.83L649.518 56.087L647.619 56.252L649.058 55.01L648.313 53.267L649.947 54.242L651.386 53L650.957 54.845L652.591 55.821Z" fill="white"/>
<path d="M562.972 144.821L561.073 144.985L560.644 146.83L559.899 145.087L558 145.252L559.439 144.01L558.694 142.267L560.328 143.242L561.767 142L561.338 143.845L562.972 144.821Z" fill="white"/>
<path d="M860.972 158.821L859.073 158.985L858.644 160.83L857.899 159.087L856 159.252L857.439 158.01L856.694 156.267L858.328 157.242L859.767 156L859.338 157.845L860.972 158.821Z" fill="white"/>
<path d="M869 118.92L867.854 119.09L867.595 121L867.146 119.196L866 119.366L866.868 118.081L866.419 116.276L867.405 117.286L868.273 116L868.014 117.91L869 118.92Z" fill="white"/>
<path d="M744 95.9203L742.854 96.0901L742.595 98L742.146 96.1956L741 96.3665L741.868 95.0807L741.419 93.2764L742.405 94.2857L743.273 93L743.014 94.9099L744 95.9203Z" fill="white"/>
<path d="M692 184.92L690.854 185.09L690.595 187L690.146 185.196L689 185.366L689.868 184.081L689.419 182.276L690.405 183.286L691.273 182L691.014 183.91L692 184.92Z" fill="white"/>
<path d="M914 182.92L912.854 183.09L912.595 185L912.146 183.196L911 183.366L911.868 182.081L911.419 180.276L912.405 181.286L913.273 180L913.014 181.91L914 182.92Z" fill="white"/>
<path d="M44.2064 85.087L42.3072 85.251L41.8783 87.096L41.1331 85.353L39.234 85.518L40.6729 84.276L39.9278 82.533L41.5621 83.508L43.001 82.266L42.5721 84.111L44.2064 85.087Z" fill="white"/>
</g>
<defs>
<clipPath id="clip0_82_55">
<rect width="1448" height="250" fill="white" transform="translate(-6)"/>
</clipPath>
</defs>
</svg>
